<?xml version="1.0" encoding="UTF-8" standalone="no"?>
<!-- Created with Inkscape (http://www.inkscape.org/) -->

<svg
   width="160"
   height="160"
   viewBox="0 0 42.333334 42.333334"
   version="1.1"
   id="svg17548"
   inkscape:version="1.2.1 (9c6d41e410, 2022-07-14)"
   sodipodi:docname="logo.svg"
   inkscape:export-filename="logo.png"
   inkscape:export-xdpi="96"
   inkscape:export-ydpi="96"
   xmlns:inkscape="http://www.inkscape.org/namespaces/inkscape"
   xmlns:sodipodi="http://sodipodi.sourceforge.net/DTD/sodipodi-0.dtd"
   xmlns="http://www.w3.org/2000/svg"
   xmlns:svg="http://www.w3.org/2000/svg">
  <sodipodi:namedview
     id="namedview17550"
     pagecolor="#ffffff"
     bordercolor="#999999"
     borderopacity="1"
     inkscape:pageshadow="0"
     inkscape:pageopacity="0"
     inkscape:pagecheckerboard="0"
     inkscape:document-units="mm"
     showgrid="false"
     width="130.489mm"
     inkscape:zoom="3.2075009"
     inkscape:cx="99.298491"
     inkscape:cy="105.84564"
     inkscape:window-width="1920"
     inkscape:window-height="1183"
     inkscape:window-x="0"
     inkscape:window-y="17"
     inkscape:window-maximized="1"
     inkscape:current-layer="layer1"
     inkscape:showpageshadow="0"
     inkscape:deskcolor="#d1d1d1" />
  <defs
     id="defs17545">
    <clipPath
       id="p7ec56af071">
      <rect
         height="217.44"
         width="334.79999"
         x="54"
         y="34.560001"
         id="rect3502" />
    </clipPath>
    <clipPath
       id="clipPath17575">
      <rect
         height="217.44"
         width="334.79999"
         x="54"
         y="34.560001"
         id="rect17573" />
    </clipPath>
    <clipPath
       id="clipPath17579">
      <rect
         height="217.44"
         width="334.79999"
         x="54"
         y="34.560001"
         id="rect17577" />
    </clipPath>
    <clipPath
       id="clipPath17583">
      <rect
         height="217.44"
         width="334.79999"
         x="54"
         y="34.560001"
         id="rect17581" />
    </clipPath>
    <clipPath
       id="clipPath17587">
      <rect
         height="217.44"
         width="334.79999"
         x="54"
         y="34.560001"
         id="rect17585" />
    </clipPath>
    <clipPath
       id="clipPath17591">
      <rect
         height="217.44"
         width="334.79999"
         x="54"
         y="34.560001"
         id="rect17589" />
    </clipPath>
    <clipPath
       id="clipPath17595">
      <rect
         height="217.44"
         width="334.79999"
         x="54"
         y="34.560001"
         id="rect17593" />
    </clipPath>
    <clipPath
       id="clipPath17599">
      <rect
         height="217.44"
         width="334.79999"
         x="54"
         y="34.560001"
         id="rect17597" />
    </clipPath>
    <clipPath
       id="clipPath17603">
      <rect
         height="217.44"
         width="334.79999"
         x="54"
         y="34.560001"
         id="rect17601" />
    </clipPath>
    <clipPath
       id="clipPath17607">
      <rect
         height="217.44"
         width="334.79999"
         x="54"
         y="34.560001"
         id="rect17605" />
    </clipPath>
    <clipPath
       id="clipPath17611">
      <rect
         height="217.44"
         width="334.79999"
         x="54"
         y="34.560001"
         id="rect17609" />
    </clipPath>
    <clipPath
       id="clipPath17615">
      <rect
         height="217.44"
         width="334.79999"
         x="54"
         y="34.560001"
         id="rect17613" />
    </clipPath>
    <clipPath
       id="clipPath17619">
      <rect
         height="217.44"
         width="334.79999"
         x="54"
         y="34.560001"
         id="rect17617" />
    </clipPath>
    <clipPath
       id="clipPath17623">
      <rect
         height="217.44"
         width="334.79999"
         x="54"
         y="34.560001"
         id="rect17621" />
    </clipPath>
    <clipPath
       id="clipPath17627">
      <rect
         height="217.44"
         width="334.79999"
         x="54"
         y="34.560001"
         id="rect17625" />
    </clipPath>
    <clipPath
       id="clipPath17631">
      <rect
         height="217.44"
         width="334.79999"
         x="54"
         y="34.560001"
         id="rect17629" />
    </clipPath>
    <clipPath
       id="clipPath17635">
      <rect
         height="217.44"
         width="334.79999"
         x="54"
         y="34.560001"
         id="rect17633" />
    </clipPath>
    <clipPath
       id="clipPath17639">
      <rect
         height="217.44"
         width="334.79999"
         x="54"
         y="34.560001"
         id="rect17637" />
    </clipPath>
    <clipPath
       id="clipPath17643">
      <rect
         height="217.44"
         width="334.79999"
         x="54"
         y="34.560001"
         id="rect17641" />
    </clipPath>
    <clipPath
       id="clipPath17647">
      <rect
         height="217.44"
         width="334.79999"
         x="54"
         y="34.560001"
         id="rect17645" />
    </clipPath>
    <clipPath
       id="clipPath17651">
      <rect
         height="217.44"
         width="334.79999"
         x="54"
         y="34.560001"
         id="rect17649" />
    </clipPath>
  </defs>
  <g
     inkscape:label="Layer 1"
     inkscape:groupmode="layer"
     id="layer1">
    <g
       id="g17543"
       transform="matrix(0.11444813,0,0,0.11444813,-4.8908791,3.9352577)"
       style="stroke-width:3.08243;stroke-linecap:butt;stroke-linejoin:round">
      <path
         clip-path="url(#p7ec56af071)"
         d="m 121.2347,63.534633 h -0.17005 -0.17006 -0.17006 -0.17367 -0.17006 -0.17005 -0.17368 -0.17367 -0.17006 -0.17367 l -0.17367,0.0036 h -0.17368 -0.17367 -0.1773 -0.17367 l -0.17367,0.0036 h -0.17729 -0.1773 l -0.17367,0.0036 h -0.17729 l -0.1773,0.0036 h -0.17729 l -0.17729,0.0036 h -0.17729 l -0.18091,0.0036 -0.1773,0.0036 -0.18091,0.0036 -0.17729,0.0036 -0.18091,0.0036 -0.18091,0.0036 -0.18091,0.0036 -0.18091,0.0036 -0.18091,0.0036 -0.18091,0.0072 -0.18091,0.0036 -0.18453,0.0072 -0.18091,0.0072 -0.18453,0.0036 -0.18091,0.0072 -0.18453,0.0072 -0.18453,0.0072 -0.18453,0.0072 -0.18453,0.01085 -0.18453,0.0072 -0.18452,0.0072 -0.18815,0.01085 -0.18453,0.01085 -0.18815,0.01085 -0.18452,0.01085 -0.18815,0.01085 -0.18815,0.01085 -0.18815,0.01085 -0.18452,0.01447 -0.18815,0.01085 -0.19177,0.01447 -0.18814,0.01447 -0.18815,0.01447 -0.19177,0.01809 -0.18814,0.01447 -0.19177,0.01809 -0.18814,0.01447 -0.19177,0.01809 -0.19177,0.01809 -0.19176,0.02171 -0.19177,0.01809 -0.19176,0.02171 -0.19177,0.01809 -0.19176,0.02171 -0.19177,0.02171 -0.19538,0.02533 -0.19176,0.02171 -0.19539,0.02533 -0.19176,0.02533 -0.19539,0.02533 -0.19538,0.02895 -0.19177,0.02533 -0.19538,0.02895 -0.19538,0.02895 -0.19539,0.02894 -0.19538,0.03256 -0.19538,0.02895 -0.199,0.03256 -0.19539,0.03256 -0.19538,0.03618 -0.19538,0.03256 -0.19901,0.03618 -0.19538,0.03618 -0.199,0.0398 -0.199,0.03618 -0.19539,0.0398 -0.199,0.0398 -0.199,0.04342 -0.19538,0.0398 -0.199,0.04342 -0.19901,0.04342 -0.199,0.04704 -0.199,0.04704 -0.199,0.04704 -0.199,0.04704 -0.199,0.05066 -0.19901,0.04704 -0.199,0.05427 -0.199,0.05066 -0.199,0.05427 -0.199,0.05427 -0.199,0.05789 -0.20262,0.05427 -0.199,0.05789 -0.19901,0.06151 -0.199,0.05789 -0.199,0.06151 -0.199,0.06513 -0.20262,0.06513 -0.199003,0.06513 -0.199001,0.06513 -0.199002,0.06875 -0.199001,0.06875 -0.199002,0.06875 -0.20262,0.07236 -0.199001,0.07236 -0.199002,0.07236 -0.199002,0.07598 -0.199001,0.07598 -0.199002,0.0796 -0.199001,0.0796 -0.195384,0.0796 -0.199001,0.08322 -0.199002,0.08322 -0.199002,0.08322 -0.195383,0.08684 -0.199002,0.08684 -0.199001,0.09046 -0.195384,0.09046 -0.195383,0.09046 -0.199002,0.09407 -0.195383,0.09407 -0.195383,0.09769 -0.195384,0.09769 -0.195383,0.09769 -0.195384,0.101309 -0.195383,0.104929 -0.191765,0.10131 -0.195383,0.104928 -0.191766,0.108546 -0.191765,0.108546 -0.191765,0.108547 -0.191765,0.112164 -0.191765,0.112165 -0.191766,0.115782 -0.191765,0.115783 -0.188147,0.115783 -0.188147,0.119401 -0.188147,0.123019 -0.188147,0.119401 -0.188147,0.126637 -0.188147,0.12302 -0.184528,0.130255 -0.184529,0.126638 -0.184529,0.130255 -0.184529,0.133874 -0.184528,0.133874 -0.180911,0.133874 -0.18091,0.137492 -0.180911,0.14111 -0.18091,0.137492 -0.177293,0.144728 -0.177292,0.14111 -0.177292,0.148347 -0.177293,0.144729 -0.173674,0.148346 -0.177292,0.151965 -0.170056,0.151965 -0.173674,0.155583 -0.170056,0.155583 -0.170056,0.155583 -0.170056,0.159201 -0.166438,0.16282 -0.166437,0.159201 -0.166438,0.166438 -0.166438,0.166438 -0.159201,0.166437 -0.16282,0.166438 -0.159201,0.170056 -0.155583,0.170056 -0.155583,0.170056 -0.155583,0.173674 -0.151965,0.170056 -0.151965,0.177292 -0.148346,0.173674 -0.144729,0.177292 -0.148346,0.177293 -0.141111,0.177292 -0.144728,0.177292 -0.137492,0.180911 -0.14111,0.180911 -0.137492,0.18091 -0.133874,0.180911 -0.133874,0.184528 -0.133874,0.184529 -0.130255,0.184529 -0.126638,0.184529 -0.130255,0.184528 -0.12302,0.188147 -0.126637,0.188147 -0.119401,0.188147 -0.123019,0.188147 -0.119401,0.188147 -0.115783,0.188147 -0.115782,0.191765 -0.115783,0.191766 -0.112165,0.191765 -0.112164,0.191765 -0.108547,0.191765 -0.108546,0.191765 -0.108546,0.191765 -0.104928,0.195384 -0.10131,0.191765 -0.104928,0.195383 -0.10131,0.195384 -0.09769,0.195383 -0.09769,0.195384 -0.09769,0.195383 -0.09407,0.195383 -0.09407,0.199002 -0.09046,0.195383 -0.09046,0.195384 -0.09045,0.199001 -0.08684,0.199002 -0.08684,0.195383 -0.08322,0.199002 -0.08322,0.199001 -0.08322,0.199002 -0.0796,0.195383 -0.0796,0.199002 -0.0796,0.199002 -0.07598,0.199001 -0.07598,0.199002 -0.07236,0.199001 -0.07236,0.199002 -0.07236,0.20262 -0.06875,0.199001 -0.06875,0.199002 -0.06875,0.199002 -0.06513,0.199001 -0.06513,0.199002 -0.06513,0.20262 -0.06513,0.199001 -0.06151,0.199002 -0.05789,0.199001 -0.06151,0.199002 -0.05789,0.199002 -0.05427,0.202619 -0.05789,0.199002 -0.05427,0.199002 -0.05427,0.199001 -0.05066,0.199002 -0.05427,0.199001 -0.04704,0.199002 -0.05065,0.199002 -0.04704,0.199001 -0.04704,0.199002 -0.04704,0.199001 -0.04704,0.199002 -0.04342,0.199002 -0.04342,0.199001 -0.0398,0.195384 -0.04342,0.199001 -0.0398,0.199002 -0.0398,0.195383 -0.03618,0.199002 -0.0398,0.199001 -0.03618,0.195384 -0.03618,0.199001 -0.03256,0.195384 -0.03618,0.195383 -0.03256,0.195383 -0.03256,0.199002 -0.02895,0.195383 -0.03256,0.195384 -0.02894,0.195383 -0.02895,0.195384 -0.02895,0.195383 -0.02533,0.191765 -0.02895,0.195384 -0.02533,0.195383 -0.02533,0.191765 -0.02533,0.195384 -0.02171,0.191765 -0.02533,0.195383 -0.02171,0.191765 -0.02171,0.191765 -0.01809,0.191766 -0.02171,0.191765 -0.01809,0.191765 -0.02171,0.191765 -0.01809,0.191765 -0.01809,0.191765 -0.01447,0.188147 -0.01809,0.191766 -0.01447,0.188147 -0.01809,0.191765 -0.01447,0.188147 -0.01447,0.188147 -0.01447,0.191765 -0.01085,0.188147 -0.01447,0.184529 -0.01085,0.188147 -0.01085,0.188147 -0.01085,0.188146 -0.01086,0.184529 -0.01085,0.188147 -0.01086,0.184529 -0.01085,0.188147 -0.0072,0.184529 -0.0072,0.184528 -0.01086,0.184529 -0.0072,0.184529 -0.0072,0.184529 -0.0072,0.184533 -0.0072,0.18091 -0.0036,0.18453 -0.0072,0.18091 -0.0072,0.18453 -0.0036,0.18091 -0.0072,0.18091 -0.0036,0.18091 -0.0036,0.18091 -0.0036,0.18091 -0.0036,0.18091 -0.0036,0.18091 -0.0036,0.17729 -0.0036,0.18092 -0.0036,0.17729 -0.0036,0.18091 v 0.17729 l -0.0036,0.17729 v 0.17729 l -0.0036,0.1773 v 0.17729 l -0.0036,0.17367 v 0.1773 0.17729 l -0.0036,0.17367 v 0.17368 0.17729 0.17367 0.17368 l -0.0036,0.17367 v 0.17368 0.17005 0.17367 0.17368 0.17006 0.17005 0.17367 0.17006 0.17006 0.17005 h 14.472843 v -0.17005 -0.17006 -0.16644 -0.17005 -0.16644 -0.17006 -0.16643 -0.16644 -0.16644 -0.16644 l 0.0036,-0.16643 v -0.16644 -0.16644 -0.16282 -0.16644 l 0.0036,-0.16282 v -0.16643 -0.16282 l 0.0036,-0.16282 v -0.16282 -0.16282 l 0.0036,-0.16282 v -0.1592 l 0.0036,-0.16282 0.0036,-0.1592 v -0.16282 l 0.0036,-0.1592 0.0036,-0.15921 0.0036,-0.16281 0.0036,-0.15921 0.0036,-0.15558 0.0036,-0.1592 0.0036,-0.1592 0.0036,-0.1592 0.0072,-0.15559 0.0036,-0.1592 0.0036,-0.15558 0.0072,-0.15558 0.0036,-0.15559 0.0072,-0.15558 0.0072,-0.15558 0.0072,-0.15559 0.0036,-0.155583 0.0072,-0.151965 0.0072,-0.155583 0.01086,-0.151965 0.0072,-0.155583 0.0072,-0.151965 0.01085,-0.151965 0.0072,-0.151965 0.01085,-0.151965 0.01086,-0.151965 0.0072,-0.148346 0.01085,-0.151965 0.01085,-0.148347 0.01086,-0.151965 0.01447,-0.148346 0.01085,-0.148347 0.01085,-0.148346 0.01447,-0.148347 0.01447,-0.148347 0.01085,-0.148346 0.01447,-0.144729 0.01447,-0.148346 0.01447,-0.144729 0.01809,-0.144728 0.01447,-0.148347 0.01809,-0.144728 0.01447,-0.144729 0.01809,-0.14111 0.01809,-0.144729 0.01809,-0.144728 0.01809,-0.14111 0.01809,-0.144729 0.02171,-0.14111 0.01809,-0.14111 0.02171,-0.14111 0.01809,-0.141111 0.02171,-0.14111 0.02171,-0.137492 0.02533,-0.14111 0.02171,-0.137492 0.02171,-0.14111 0.02533,-0.137492 0.02533,-0.137492 0.02533,-0.137492 0.02533,-0.133874 0.02533,-0.137492 0.02533,-0.137492 0.02533,-0.133874 0.02895,-0.133874 0.02895,-0.137492 0.02895,-0.133873 0.02894,-0.130256 0.02895,-0.133874 0.02895,-0.133874 0.03256,-0.130255 0.02895,-0.133874 0.03256,-0.130256 0.03256,-0.130255 0.03256,-0.130256 0.03256,-0.130255 0.03618,-0.126638 0.03256,-0.130255 0.03618,-0.126638 0.03618,-0.130255 0.03618,-0.126638 0.03618,-0.126637 0.03618,-0.123019 0.0398,-0.126638 0.03618,-0.123019 0.0398,-0.126637 0.0398,-0.123019 0.0398,-0.12302 0.04342,-0.123019 0.0398,-0.123019 0.04342,-0.119401 0.0398,-0.123019 0.04342,-0.119401 0.04342,-0.119401 0.04704,-0.119401 0.04342,-0.115783 0.04704,-0.119401 0.04342,-0.115782 0.04704,-0.119401 0.04704,-0.115783 0.04704,-0.115783 0.05066,-0.112164 0.04704,-0.115783 0.05065,-0.112165 0.05066,-0.115782 0.05065,-0.112165 0.05066,-0.108546 0.05065,-0.112165 0.05427,-0.112164 0.05065,-0.108547 0.05427,-0.108546 0.05427,-0.108546 0.05427,-0.108547 0.05427,-0.104928 0.05789,-0.104928 0.05427,-0.108546 0.05789,-0.104928 0.05789,-0.10131 0.05789,-0.104928 0.05789,-0.10131 0.06151,-0.10131 0.05789,-0.10131 0.06151,-0.10131 0.06151,-0.10131 0.06151,-0.09769 0.06151,-0.09769 0.06151,-0.09769 0.06151,-0.09769 0.06513,-0.09407 0.06513,-0.09407 0.06151,-0.09769 0.06513,-0.09046 0.06875,-0.09407 0.06513,-0.09046 0.06513,-0.09407 0.06875,-0.09046 0.06513,-0.08684 0.06875,-0.09045 0.06875,-0.08684 0.06875,-0.08684 0.07237,-0.08684 0.06875,-0.08322 0.06875,-0.08684 0.07236,-0.08322 0.07236,-0.08322 0.07236,-0.0796 0.07236,-0.08322 0.07237,-0.0796 0.07236,-0.0796 0.07236,-0.07598 0.07598,-0.0796 0.07236,-0.07598 0.07598,-0.07598 0.07598,-0.07598 0.07598,-0.07237 0.0796,-0.07598 0.07598,-0.07236 0.0796,-0.07236 0.0796,-0.07237 0.08322,-0.07236 0.0796,-0.07236 0.08322,-0.07236 0.08322,-0.07236 0.08684,-0.06875 0.08322,-0.06875 0.08684,-0.07237 0.08684,-0.06875 0.08684,-0.06875 0.09046,-0.06875 0.08684,-0.06513 0.09045,-0.06875 0.09407,-0.06513 0.09045,-0.06513 0.09407,-0.06875 0.09045,-0.06513 0.09769,-0.06151 0.09407,-0.06513 0.09407,-0.06513 0.09769,-0.06151 0.0977,-0.06151 0.0977,-0.06151 0.0977,-0.06151 0.10131,-0.06151 0.10131,-0.06151 0.10131,-0.05789 0.10131,-0.06151 0.10131,-0.05789 0.10493,-0.05789 0.10131,-0.05789 0.10493,-0.05789 0.10854,-0.05427 0.10493,-0.05789 0.10493,-0.05427 0.10855,-0.05427 0.10854,-0.05427 0.10855,-0.05427 0.10855,-0.05066 0.11216,-0.05427 0.11217,-0.05066 0.10854,-0.05065 0.11217,-0.05066 0.11578,-0.05065 0.11216,-0.05066 0.11579,-0.04704 0.11216,-0.05065 0.11578,-0.04704 0.11579,-0.04704 0.1194,-0.04704 0.11578,-0.04342 0.1194,-0.04704 0.11578,-0.04342 0.1194,-0.04704 0.11941,-0.04342 0.1194,-0.04342 0.12302,-0.0398 0.1194,-0.04342 0.12302,-0.0398 0.12302,-0.04342 0.12302,-0.0398 0.12301,-0.0398 0.12664,-0.0398 0.12302,-0.03618 0.12664,-0.0398 0.12302,-0.03618 0.12663,-0.03618 0.12664,-0.03618 0.13026,-0.03618 0.12664,-0.03618 0.13025,-0.03256 0.12664,-0.03618 0.13025,-0.03256 0.13026,-0.03256 0.13025,-0.03256 0.13026,-0.03256 0.13387,-0.02895 0.13026,-0.03256 0.13387,-0.02895 0.13388,-0.02895 0.13025,-0.02895 0.13388,-0.02894 0.13749,-0.02895 0.13387,-0.02895 0.13388,-0.02533 0.13749,-0.02533 0.13749,-0.02533 0.13387,-0.02533 0.1375,-0.02533 0.13749,-0.02533 0.13749,-0.02533 0.14111,-0.02171 0.13749,-0.02171 0.14111,-0.02533 0.13749,-0.02171 0.14112,-0.02171 0.14111,-0.01809 0.14111,-0.02171 0.14111,-0.01809 0.1411,-0.02171 0.14473,-0.01809 0.14111,-0.01809 0.14473,-0.01809 0.14473,-0.01809 0.14111,-0.01809 0.14473,-0.01447 0.14473,-0.01809 0.14835,-0.01447 0.14472,-0.01809 0.14473,-0.01447 0.14835,-0.01447 0.14473,-0.01447 0.14834,-0.01085 0.14835,-0.01447 0.14835,-0.01447 0.14834,-0.01086 0.14835,-0.01085 0.14835,-0.01447 0.15196,-0.01086 0.14835,-0.01085 0.15196,-0.01086 0.14835,-0.0072 0.15196,-0.01086 0.15197,-0.01085 0.15196,-0.0072 0.15197,-0.01086 0.15196,-0.0072 0.15559,-0.0072 0.15196,-0.01085 0.15559,-0.0072 0.15196,-0.0072 0.15558,-0.0036 0.15559,-0.0072 0.15558,-0.0072 0.15558,-0.0072 0.15558,-0.0036 0.15559,-0.0072 0.15558,-0.0036 0.1592,-0.0036 0.15559,-0.0072 0.1592,-0.0036 0.1592,-0.0036 0.1592,-0.0036 0.15558,-0.0036 0.1592,-0.0036 0.16282,-0.0036 0.1592,-0.0036 0.15921,-0.0036 h 0.16282 l 0.1592,-0.0036 0.16282,-0.0036 h 0.1592 l 0.16282,-0.0036 h 0.16282 0.16282 l 0.16281,-0.0036 h 0.16283 0.16643 l 0.16282,-0.0036 h 0.16644 0.16282 0.16644 0.16643 l 0.16644,-0.0036 h 0.16644 0.16644 0.16644 0.16643 0.17006 0.16644 0.17005 0.16644 0.17006 0.17005 z"
         style="fill:#80ff80;fill-opacity:1;stroke:#000000;stroke-width:3.08243"
         id="path3226"
         transform="translate(6)" />
      <path
         clip-path="url(#p7ec56af071)"
         d="m 77.816172,106.95316 v 0.17006 0.17005 0.17006 0.17368 0.17005 0.17006 0.17367 0.17368 0.17005 0.17367 l 0.0036,0.17368 v 0.17367 0.17368 0.17729 0.17367 l 0.0036,0.17368 v 0.17729 0.17729 l 0.0036,0.17368 v 0.17729 l 0.0036,0.17729 v 0.17729 l 0.0036,0.1773 v 0.17729 l 0.0036,0.18091 0.0036,0.17729 0.0036,0.18091 0.0036,0.17729 0.0036,0.18092 0.0036,0.18091 0.0036,0.18091 0.0036,0.18091 0.0036,0.18091 0.0072,0.18091 0.0036,0.18091 0.0072,0.18453 0.0072,0.18091 0.0036,0.18453 0.0072,0.18091 0.0072,0.18452 0.0072,0.18453 0.0072,0.18453 0.01086,0.18453 0.0072,0.18453 0.0072,0.18453 0.01085,0.18815 0.01086,0.18453 0.01085,0.18814 0.01086,0.18453 0.01085,0.18815 0.01085,0.18814 0.01085,0.18815 0.01447,0.18453 0.01085,0.18815 0.01447,0.19176 0.01447,0.18815 0.01447,0.18815 0.01809,0.19176 0.01447,0.18815 0.01809,0.19176 0.01447,0.18815 0.01809,0.19177 0.01809,0.19176 0.02171,0.19177 0.01809,0.19176 0.02171,0.19177 0.01809,0.19176 0.02171,0.19177 0.02171,0.19176 0.02533,0.19539 0.02171,0.19176 0.02533,0.19538 0.02533,0.19177 0.02533,0.19538 0.02895,0.19539 0.02533,0.19176 0.02895,0.19538 0.02895,0.19539 0.02894,0.19538 0.03256,0.19538 0.02895,0.19539 0.03256,0.199 0.03256,0.19538 0.03618,0.19539 0.03256,0.19538 0.03618,0.199 0.03618,0.19539 0.0398,0.199 0.03618,0.199 0.0398,0.19538 0.0398,0.199 0.04342,0.199 0.0398,0.19539 0.04342,0.199 0.04342,0.199 0.04704,0.199 0.04704,0.199 0.04704,0.19901 0.04704,0.199 0.05065,0.199 0.04704,0.199 0.05427,0.199 0.05066,0.199 0.05427,0.199 0.05427,0.19901 0.05789,0.199 0.05427,0.20262 0.05789,0.199 0.06151,0.199 0.05789,0.199 0.06151,0.199 0.06513,0.19901 0.06513,0.20262 0.06513,0.199 0.06513,0.199 0.06875,0.199 0.06875,0.199 0.06875,0.199 0.07236,0.20262 0.07236,0.199 0.07236,0.19901 0.07598,0.199 0.07598,0.199 0.0796,0.199 0.0796,0.199 0.0796,0.19539 0.08322,0.199 0.08322,0.199 0.08322,0.199 0.08684,0.19539 0.08684,0.199 0.09045,0.199 0.09046,0.19538 0.09046,0.19538 0.09407,0.19901 0.09407,0.19538 0.09769,0.19538 0.09769,0.19539 0.09769,0.19538 0.10131,0.19538 0.104928,0.19539 0.10131,0.19176 0.104928,0.19538 0.108546,0.19177 0.108546,0.19177 0.108547,0.19176 0.112164,0.19177 0.112165,0.19176 0.115783,0.19177 0.115782,0.19176 0.115783,0.18815 0.119401,0.18815 0.123019,0.18814 0.119401,0.18815 0.126637,0.18815 0.12302,0.18814 0.130255,0.18453 0.126638,0.18453 0.130255,0.18453 0.133874,0.18453 0.133874,0.18453 0.133874,0.18091 0.137492,0.18091 0.14111,0.18091 0.137492,0.18091 0.144728,0.17729 0.141111,0.17729 0.148346,0.1773 0.144729,0.17729 0.148346,0.17367 0.151965,0.17729 0.151965,0.17006 0.155583,0.17367 0.155583,0.17006 0.155583,0.17006 0.159201,0.17005 0.16282,0.16644 0.159201,0.16644 0.166438,0.16644 0.166438,0.16643 0.166437,0.1592 0.166438,0.16282 0.170056,0.15921 0.170056,0.15558 0.170056,0.15558 0.173674,0.15558 0.170056,0.15197 0.177292,0.15196 0.173674,0.14835 0.177293,0.14473 0.177292,0.14835 0.177292,0.14111 0.177293,0.14472 0.18091,0.1375 0.180911,0.14111 0.18091,0.13749 0.180911,0.13387 0.184528,0.13388 0.184529,0.13387 0.184529,0.13026 0.184529,0.12663 0.184528,0.13026 0.188147,0.12302 0.188147,0.12664 0.188147,0.1194 0.188147,0.12302 0.188147,0.1194 0.188147,0.11578 0.191765,0.11578 0.191766,0.11578 0.191765,0.11217 0.191765,0.11216 0.191765,0.10855 0.191765,0.10855 0.191766,0.10854 0.195383,0.10493 0.191765,0.10131 0.195383,0.10493 0.195384,0.10131 0.195383,0.0977 0.195384,0.0977 0.195383,0.0977 0.195383,0.0941 0.199002,0.0941 0.195383,0.0905 0.195384,0.0905 0.199001,0.0905 0.199002,0.0868 0.195383,0.0868 0.199002,0.0832 0.199002,0.0832 0.199001,0.0832 0.195384,0.0796 0.199001,0.0796 0.199002,0.0796 0.199001,0.076 0.199002,0.076 0.199002,0.0724 0.199001,0.0724 0.20262,0.0724 0.199002,0.0687 0.199001,0.0687 0.199002,0.0687 0.199001,0.0651 0.199007,0.0651 0.20262,0.0651 0.199,0.0651 0.199,0.0615 0.199,0.0579 0.19901,0.0615 0.199,0.0579 0.20262,0.0543 0.199,0.0579 0.199,0.0543 0.199,0.0543 0.199,0.0507 0.199,0.0543 0.19901,0.047 0.199,0.0507 0.199,0.047 0.199,0.047 0.199,0.047 0.199,0.047 0.19901,0.0434 0.199,0.0434 0.19538,0.0398 0.199,0.0434 0.199,0.0398 0.19539,0.0398 0.199,0.0362 0.199,0.0398 0.19538,0.0362 0.19901,0.0362 0.19538,0.0326 0.19538,0.0362 0.19539,0.0326 0.199,0.0326 0.19538,0.029 0.19538,0.0326 0.19539,0.029 0.19538,0.0289 0.19538,0.029 0.19177,0.0253 0.19538,0.0289 0.19539,0.0253 0.19176,0.0253 0.19539,0.0253 0.19176,0.0217 0.19538,0.0253 0.19177,0.0217 0.19176,0.0217 0.19177,0.0181 0.19176,0.0217 0.19177,0.0181 0.19176,0.0217 0.19177,0.0181 0.19177,0.0181 0.18814,0.0145 0.19177,0.0181 0.18814,0.0145 0.19177,0.0181 0.18815,0.0145 0.18814,0.0145 0.19177,0.0145 0.18815,0.0109 0.18452,0.0145 0.18815,0.0108 0.18815,0.0109 0.18815,0.0109 0.18452,0.0109 0.18815,0.0108 0.18453,0.0109 0.18815,0.0109 0.18452,0.007 0.18453,0.007 0.18453,0.0109 0.18453,0.007 0.18453,0.007 0.18453,0.007 0.18091,0.007 0.18453,0.004 0.18091,0.007 0.18453,0.007 0.18091,0.004 0.18091,0.007 0.18091,0.004 0.18091,0.004 0.18091,0.004 0.18091,0.004 0.18091,0.004 0.17729,0.004 0.18091,0.004 0.1773,0.004 0.18091,0.004 h 0.17729 l 0.17729,0.004 h 0.17729 l 0.1773,0.004 h 0.17729 l 0.17367,0.004 h 0.1773 0.17729 l 0.17367,0.004 h 0.17367 0.1773 0.17367 0.17368 l 0.17367,0.004 h 0.17367 0.17006 0.17367 0.17368 0.17005 0.17006 0.17367 0.17006 0.17006 0.17005 V 135.9033 h -0.17005 -0.17006 -0.16644 -0.17005 -0.16644 -0.17006 -0.16643 -0.16644 -0.16644 -0.16644 l -0.16644,-0.004 h -0.16643 -0.16644 -0.16282 -0.16644 l -0.16282,-0.004 h -0.16643 -0.16283 l -0.16281,-0.004 h -0.16282 -0.16282 l -0.16282,-0.004 h -0.1592 l -0.16282,-0.004 -0.1592,-0.004 h -0.16282 l -0.15921,-0.004 -0.1592,-0.004 -0.16282,-0.004 -0.1592,-0.004 -0.15558,-0.004 -0.1592,-0.004 -0.1592,-0.004 -0.1592,-0.004 -0.15559,-0.007 -0.1592,-0.004 -0.15558,-0.004 -0.15559,-0.007 -0.15558,-0.004 -0.15558,-0.007 -0.15558,-0.007 -0.15559,-0.007 -0.15558,-0.004 -0.15196,-0.007 -0.15559,-0.007 -0.15196,-0.0109 -0.15559,-0.007 -0.15196,-0.007 -0.15197,-0.0109 -0.15196,-0.007 -0.15197,-0.0109 -0.15196,-0.0109 -0.14835,-0.007 -0.15196,-0.0109 -0.14835,-0.0109 -0.15196,-0.0108 -0.14835,-0.0145 -0.14835,-0.0109 -0.14834,-0.0108 -0.14835,-0.0145 -0.14835,-0.0145 -0.14834,-0.0109 -0.14473,-0.0145 -0.14835,-0.0145 -0.14473,-0.0145 -0.14472,-0.0181 -0.14835,-0.0145 -0.14473,-0.0181 -0.14473,-0.0145 -0.14111,-0.0181 -0.14473,-0.0181 -0.14473,-0.0181 -0.14111,-0.0181 -0.14473,-0.0181 -0.1411,-0.0217 -0.14111,-0.0181 -0.14111,-0.0217 -0.14111,-0.0181 -0.14112,-0.0217 -0.13749,-0.0217 -0.14111,-0.0253 -0.13749,-0.0217 -0.14111,-0.0217 -0.13749,-0.0253 -0.13749,-0.0253 -0.1375,-0.0253 -0.13387,-0.0253 -0.13749,-0.0253 -0.13749,-0.0253 -0.13388,-0.0253 -0.13387,-0.029 -0.13749,-0.0289 -0.13388,-0.029 -0.13025,-0.029 -0.13388,-0.0289 -0.13387,-0.029 -0.13026,-0.0326 -0.13387,-0.0289 -0.13026,-0.0326 -0.13025,-0.0326 -0.13026,-0.0326 -0.13025,-0.0326 -0.12664,-0.0362 -0.13025,-0.0326 -0.12664,-0.0362 -0.13026,-0.0362 -0.12664,-0.0362 -0.12663,-0.0362 -0.12302,-0.0362 -0.12664,-0.0398 -0.12302,-0.0362 -0.12664,-0.0398 -0.12301,-0.0398 -0.12302,-0.0398 -0.12302,-0.0434 -0.12302,-0.0398 -0.1194,-0.0434 -0.12302,-0.0398 -0.1194,-0.0434 -0.11941,-0.0434 -0.1194,-0.047 -0.11578,-0.0434 -0.1194,-0.047 -0.11578,-0.0434 -0.1194,-0.047 -0.11579,-0.047 -0.11578,-0.047 -0.11216,-0.0507 -0.11579,-0.047 -0.11216,-0.0507 -0.11578,-0.0507 -0.11217,-0.0506 -0.10854,-0.0507 -0.11217,-0.0506 -0.11216,-0.0543 -0.10855,-0.0506 -0.10855,-0.0543 -0.10854,-0.0543 -0.10855,-0.0543 -0.10493,-0.0543 -0.10493,-0.0579 -0.10854,-0.0543 -0.10493,-0.0579 -0.10131,-0.0579 -0.10493,-0.0579 -0.10131,-0.0579 -0.10131,-0.0615 -0.10131,-0.0579 -0.10131,-0.0615 -0.10131,-0.0615 -0.0977,-0.0615 -0.0977,-0.0615 -0.0977,-0.0615 -0.09769,-0.0615 -0.09407,-0.0651 -0.09407,-0.0651 -0.09769,-0.0615 -0.09045,-0.0651 -0.09407,-0.0687 -0.09045,-0.0651 -0.09407,-0.0651 -0.09045,-0.0687 -0.08684,-0.0651 -0.09046,-0.0687 -0.08684,-0.0687 -0.08684,-0.0687 -0.08684,-0.0724 -0.08322,-0.0687 -0.08684,-0.0687 -0.08322,-0.0724 -0.08322,-0.0724 -0.0796,-0.0724 -0.08322,-0.0724 -0.0796,-0.0724 -0.0796,-0.0724 -0.07598,-0.0724 -0.0796,-0.076 -0.07598,-0.0724 -0.07598,-0.076 -0.07598,-0.076 -0.07236,-0.076 -0.07598,-0.0796 -0.07236,-0.076 -0.07236,-0.0796 -0.07237,-0.0796 -0.07236,-0.0832 -0.07236,-0.0796 -0.07236,-0.0832 -0.07236,-0.0832 -0.06875,-0.0868 -0.06875,-0.0832 -0.07237,-0.0868 -0.06875,-0.0868 -0.06875,-0.0868 -0.06875,-0.0905 -0.06513,-0.0868 -0.06875,-0.0905 -0.06513,-0.0941 -0.06513,-0.0904 -0.06875,-0.0941 -0.06513,-0.0905 -0.06151,-0.0977 -0.06513,-0.0941 -0.06513,-0.0941 -0.06151,-0.0977 -0.06151,-0.0977 -0.06151,-0.0977 -0.06151,-0.0977 -0.06151,-0.10131 -0.06151,-0.10131 -0.05789,-0.10131 -0.06151,-0.10131 -0.05789,-0.10131 -0.05789,-0.10493 -0.05789,-0.10131 -0.05789,-0.10492 -0.05427,-0.10855 -0.05789,-0.10493 -0.05427,-0.10493 -0.05427,-0.10854 -0.05427,-0.10855 -0.05427,-0.10855 -0.05065,-0.10854 -0.05427,-0.11217 -0.05065,-0.11216 -0.05066,-0.10855 -0.05065,-0.11216 -0.05066,-0.11578 -0.05065,-0.11217 -0.04704,-0.11578 -0.05066,-0.11217 -0.04704,-0.11578 -0.04704,-0.11578 -0.04704,-0.1194 -0.04342,-0.11579 -0.04704,-0.1194 -0.04342,-0.11578 -0.04704,-0.1194 -0.04342,-0.1194 -0.04342,-0.1194 -0.0398,-0.12302 -0.04342,-0.1194 -0.0398,-0.12302 -0.04342,-0.12302 -0.0398,-0.12302 -0.0398,-0.12302 -0.0398,-0.12664 -0.03618,-0.12302 -0.0398,-0.12663 -0.03618,-0.12302 -0.03618,-0.12664 -0.03618,-0.12664 -0.03618,-0.13025 -0.03618,-0.12664 -0.03256,-0.13026 -0.03618,-0.12663 -0.03256,-0.13026 -0.03256,-0.13025 -0.03256,-0.13026 -0.03256,-0.13026 -0.02895,-0.13387 -0.03256,-0.13025 -0.02895,-0.13388 -0.02895,-0.13387 -0.02894,-0.13026 -0.02895,-0.13387 -0.02895,-0.13749 -0.02895,-0.13388 -0.02533,-0.13387 -0.02533,-0.13749 -0.02533,-0.1375 -0.02533,-0.13387 -0.02533,-0.13749 -0.02533,-0.13749 -0.02533,-0.13749 -0.02171,-0.14111 -0.02171,-0.1375 -0.02533,-0.14111 -0.02171,-0.13749 -0.02171,-0.14111 -0.01809,-0.14111 -0.02171,-0.14111 -0.01809,-0.14111 -0.02171,-0.14111 -0.01809,-0.14473 -0.01809,-0.14111 -0.01809,-0.14473 -0.01809,-0.14473 -0.01809,-0.14111 -0.01447,-0.14472 -0.01809,-0.14473 -0.01447,-0.14835 -0.01809,-0.14473 -0.01447,-0.14473 -0.01447,-0.14834 -0.01447,-0.14473 -0.01085,-0.14835 -0.01447,-0.14835 -0.01447,-0.14834 -0.01085,-0.14835 -0.01085,-0.14834 -0.01447,-0.14835 -0.01086,-0.15197 -0.01085,-0.14834 -0.01085,-0.15197 -0.0072,-0.14834 -0.01086,-0.15197 -0.01085,-0.15196 -0.0072,-0.15197 -0.01085,-0.15196 -0.0072,-0.15197 -0.0072,-0.15558 -0.01086,-0.15197 -0.0072,-0.15558 -0.0072,-0.15196 -0.0036,-0.15559 -0.0072,-0.15558 -0.0072,-0.15558 -0.0072,-0.15559 -0.0036,-0.15558 -0.0072,-0.15558 -0.0036,-0.15559 -0.0036,-0.1592 -0.0072,-0.15558 -0.0036,-0.1592 -0.0036,-0.1592 -0.0036,-0.1592 -0.0036,-0.15559 -0.0036,-0.1592 -0.0036,-0.16282 -0.0036,-0.1592 -0.0036,-0.1592 v -0.16282 l -0.0036,-0.1592 -0.0036,-0.16282 v -0.1592 l -0.0036,-0.16282 v -0.16282 -0.16282 l -0.0036,-0.16282 v -0.16282 -0.16644 l -0.0036,-0.16282 v -0.16643 -0.16282 -0.16644 -0.16644 l -0.0036,-0.16644 v -0.16643 -0.16644 -0.16644 -0.16644 -0.17005 -0.16644 -0.17006 -0.16644 -0.17005 -0.17006 z"
         style="fill:#80ff80;fill-opacity:1;stroke:#000000;stroke-width:3.08243"
         id="path3228"
         transform="translate(6)" />
      <path
         clip-path="url(#p7ec56af071)"
         d="m 164.65323,179.31738 v -0.17006 -0.17005 -0.17006 -0.17367 -0.17006 -0.17005 -0.17368 -0.17367 -0.17006 -0.17367 l -0.004,-0.17368 v -0.17367 -0.17367 -0.1773 -0.17367 l -0.004,-0.17368 v -0.17729 -0.17729 l -0.004,-0.17367 v -0.1773 l -0.004,-0.17729 v -0.17729 l -0.004,-0.17729 v -0.1773 l -0.004,-0.18091 -0.004,-0.17729 -0.004,-0.18091 -0.004,-0.17729 -0.004,-0.18091 -0.004,-0.18091 -0.004,-0.18091 -0.004,-0.18091 -0.004,-0.18091 -0.007,-0.18091 -0.004,-0.18092 -0.007,-0.18452 -0.007,-0.18091 -0.004,-0.18453 -0.007,-0.18091 -0.007,-0.18453 -0.007,-0.18453 -0.007,-0.18453 -0.0109,-0.18453 -0.007,-0.18453 -0.007,-0.18453 -0.0109,-0.18814 -0.0109,-0.18453 -0.0109,-0.18815 -0.0109,-0.18453 -0.0109,-0.18814 -0.0109,-0.18815 -0.0109,-0.18815 -0.0145,-0.18453 -0.0109,-0.18814 -0.0145,-0.19177 -0.0145,-0.18815 -0.0145,-0.18814 -0.0181,-0.19177 -0.0145,-0.18815 -0.0181,-0.19176 -0.0145,-0.18815 -0.0181,-0.19176 -0.0181,-0.19177 -0.0217,-0.19176 -0.0181,-0.19177 -0.0217,-0.19176 -0.0181,-0.19177 -0.0217,-0.19176 -0.0217,-0.19177 -0.0253,-0.19538 -0.0217,-0.19177 -0.0253,-0.19538 -0.0253,-0.19177 -0.0253,-0.19538 -0.0289,-0.19538 -0.0253,-0.19177 -0.0289,-0.19538 -0.0289,-0.19539 -0.029,-0.19538 -0.0326,-0.19538 -0.029,-0.19539 -0.0326,-0.199 -0.0326,-0.19538 -0.0362,-0.19538 -0.0326,-0.19539 -0.0362,-0.199 -0.0362,-0.19538 -0.0398,-0.199 -0.0362,-0.19901 -0.0398,-0.19538 -0.0398,-0.199 -0.0434,-0.199 -0.0398,-0.19539 -0.0434,-0.199 -0.0434,-0.199 -0.047,-0.199 -0.047,-0.199 -0.047,-0.199 -0.047,-0.199 -0.0507,-0.19901 -0.047,-0.199 -0.0543,-0.199 -0.0507,-0.199 -0.0543,-0.199 -0.0543,-0.199 -0.0579,-0.19901 -0.0543,-0.20262 -0.0579,-0.199 -0.0615,-0.199 -0.0579,-0.199 -0.0615,-0.199 -0.0651,-0.199 -0.0651,-0.20262 -0.0651,-0.19901 -0.0651,-0.199 -0.0687,-0.199 -0.0687,-0.199 -0.0687,-0.199 -0.0724,-0.20262 -0.0724,-0.199 -0.0724,-0.199 -0.076,-0.19901 -0.076,-0.199 -0.0796,-0.199 -0.0796,-0.199 -0.0796,-0.19538 -0.0832,-0.19901 -0.0832,-0.199 -0.0832,-0.199 -0.0868,-0.19538 -0.0868,-0.199 -0.0905,-0.19901 -0.0905,-0.19538 -0.0905,-0.19538 -0.0941,-0.199 -0.0941,-0.19539 -0.0977,-0.19538 -0.0977,-0.19538 -0.0977,-0.19539 -0.10131,-0.19538 -0.10493,-0.19538 -0.10131,-0.19177 -0.10493,-0.19538 -0.10854,-0.19177 -0.10855,-0.19176 -0.10855,-0.19177 -0.11216,-0.19176 -0.11217,-0.19177 -0.11578,-0.19176 -0.11578,-0.19177 -0.11578,-0.18815 -0.11941,-0.18814 -0.12301,-0.18815 -0.11941,-0.18815 -0.12663,-0.18814 -0.12302,-0.18815 -0.13026,-0.18453 -0.12664,-0.18453 -0.13025,-0.18453 -0.13387,-0.18453 -0.13388,-0.18452 -0.13387,-0.18092 -0.13749,-0.18091 -0.14111,-0.18091 -0.1375,-0.18091 -0.14472,-0.17729 -0.14111,-0.17729 -0.14835,-0.17729 -0.14473,-0.1773 -0.14835,-0.17367 -0.15196,-0.17729 -0.15197,-0.17006 -0.15558,-0.17367 -0.15558,-0.17006 -0.15559,-0.17005 -0.1592,-0.17006 -0.16282,-0.16644 -0.1592,-0.16644 -0.16644,-0.16643 -0.16643,-0.16644 -0.16644,-0.1592 -0.16644,-0.16282 -0.17005,-0.1592 -0.17006,-0.15559 -0.17006,-0.15558 -0.17367,-0.15558 -0.17006,-0.15197 -0.17729,-0.15196 -0.17367,-0.14835 -0.17729,-0.14473 -0.1773,-0.14834 -0.17729,-0.14111 -0.17729,-0.14473 -0.18091,-0.13749 -0.18091,-0.14111 -0.18091,-0.1375 -0.18091,-0.13387 -0.18453,-0.13387 -0.18453,-0.13388 -0.18453,-0.13025 -0.18453,-0.12664 -0.18453,-0.13026 -0.18814,-0.12302 -0.18815,-0.12663 -0.18815,-0.1194 -0.18815,-0.12302 -0.18814,-0.1194 -0.18815,-0.11579 -0.19176,-0.11578 -0.19177,-0.11578 -0.19177,-0.11217 -0.19176,-0.11216 -0.19177,-0.10855 -0.19176,-0.10854 -0.19177,-0.10855 -0.19538,-0.10493 -0.19176,-0.10131 -0.19539,-0.10493 -0.19538,-0.10131 -0.19538,-0.0977 -0.19539,-0.0977 -0.19538,-0.0977 -0.19538,-0.0941 -0.19901,-0.0941 -0.19538,-0.0905 -0.19538,-0.0905 -0.199,-0.0905 -0.19901,-0.0868 -0.19538,-0.0868 -0.199,-0.0832 -0.199,-0.0832 -0.199,-0.0832 -0.19539,-0.0796 -0.199,-0.0796 -0.199,-0.0796 -0.199,-0.076 -0.199,-0.076 -0.19901,-0.0724 -0.199,-0.0724 -0.20262,-0.0724 -0.199,-0.0688 -0.199,-0.0687 -0.199,-0.0687 -0.199,-0.0651 -0.19901,-0.0651 -0.20262,-0.0651 -0.199,-0.0651 -0.199,-0.0615 -0.199,-0.0579 -0.199,-0.0615 -0.199,-0.0579 -0.20262,-0.0543 -0.199,-0.0579 -0.19901,-0.0543 -0.199,-0.0543 -0.199,-0.0506 -0.199,-0.0543 -0.199,-0.047 -0.199,-0.0507 -0.19901,-0.047 -0.199,-0.047 -0.199,-0.047 -0.199,-0.047 -0.199,-0.0434 -0.199,-0.0434 -0.19539,-0.0398 -0.199,-0.0434 -0.199,-0.0398 -0.19538,-0.0398 -0.19901,-0.0362 -0.199,-0.0398 -0.19538,-0.0362 -0.199,-0.0362 -0.19539,-0.0326 -0.19538,-0.0362 -0.19538,-0.0326 -0.199,-0.0326 -0.19539,-0.029 -0.19538,-0.0326 -0.19538,-0.029 -0.19539,-0.0289 -0.19538,-0.029 -0.19177,-0.0253 -0.19538,-0.029 -0.19538,-0.0253 -0.19177,-0.0253 -0.19538,-0.0253 -0.19177,-0.0217 -0.19538,-0.0253 -0.19176,-0.0217 -0.19177,-0.0217 -0.19176,-0.0181 -0.19177,-0.0217 -0.19177,-0.0181 -0.19176,-0.0217 -0.19177,-0.0181 -0.19176,-0.0181 -0.18815,-0.0145 -0.19176,-0.0181 -0.18815,-0.0145 -0.19177,-0.0181 -0.18814,-0.0145 -0.18815,-0.0145 -0.19176,-0.0145 -0.18815,-0.0109 -0.18453,-0.0145 -0.18815,-0.0109 -0.18814,-0.0109 -0.18815,-0.0109 -0.18453,-0.0109 -0.18815,-0.0109 -0.18453,-0.0109 -0.18814,-0.0109 -0.18453,-0.007 -0.18453,-0.007 -0.18453,-0.0109 -0.18453,-0.007 -0.18453,-0.007 -0.18452,-0.007 -0.18092,-0.007 -0.18452,-0.004 -0.18091,-0.007 -0.18453,-0.007 -0.18091,-0.004 -0.18091,-0.007 -0.18091,-0.004 -0.18091,-0.004 -0.18092,-0.004 -0.18091,-0.004 -0.18091,-0.004 -0.17729,-0.004 -0.18091,-0.004 -0.17729,-0.004 -0.18091,-0.004 h -0.17729 l -0.1773,-0.004 h -0.17729 l -0.17729,-0.004 h -0.17729 l -0.17368,-0.004 h -0.17729 -0.17729 l -0.17368,-0.004 h -0.17367 -0.17729 -0.17368 -0.17367 l -0.17368,-0.004 h -0.17367 -0.17006 -0.17367 -0.17367 -0.17006 -0.17006 -0.17367 -0.17006 -0.17005 -0.17006 v 14.47284 h 0.17006 0.17005 0.16644 0.17006 0.16643 0.17006 0.16644 0.16644 0.16643 0.16644 l 0.16644,0.004 h 0.16644 0.16643 0.16282 0.16644 l 0.16282,0.004 h 0.16644 0.16282 l 0.16282,0.004 h 0.16282 0.16282 l 0.16282,0.004 h 0.1592 l 0.16282,0.004 0.1592,0.004 h 0.16282 l 0.1592,0.004 0.1592,0.004 0.16282,0.004 0.1592,0.004 0.15559,0.004 0.1592,0.004 0.1592,0.004 0.1592,0.004 0.15558,0.007 0.1592,0.004 0.15559,0.004 0.15558,0.007 0.15558,0.004 0.15559,0.007 0.15558,0.007 0.15558,0.007 0.15558,0.004 0.15197,0.007 0.15558,0.007 0.15197,0.0109 0.15558,0.007 0.15196,0.007 0.15197,0.0109 0.15196,0.007 0.15197,0.0109 0.15196,0.0109 0.14835,0.007 0.15197,0.0109 0.14834,0.0109 0.15197,0.0109 0.14834,0.0145 0.14835,0.0109 0.14835,0.0109 0.14834,0.0145 0.14835,0.0145 0.14835,0.0109 0.14473,0.0145 0.14834,0.0145 0.14473,0.0145 0.14473,0.0181 0.14835,0.0145 0.14472,0.0181 0.14473,0.0145 0.14111,0.0181 0.14473,0.0181 0.14473,0.0181 0.14111,0.0181 0.14473,0.0181 0.14111,0.0217 0.14111,0.0181 0.14111,0.0217 0.14111,0.0181 0.14111,0.0217 0.13749,0.0217 0.14111,0.0253 0.13749,0.0217 0.14111,0.0217 0.1375,0.0253 0.13749,0.0253 0.13749,0.0253 0.13387,0.0253 0.1375,0.0253 0.13749,0.0253 0.13387,0.0253 0.13388,0.0289 0.13749,0.029 0.13387,0.0289 0.13026,0.0289 0.13387,0.0289 0.13387,0.029 0.13026,0.0326 0.13387,0.029 0.13026,0.0326 0.13025,0.0326 0.13026,0.0326 0.13026,0.0326 0.12663,0.0362 0.13026,0.0326 0.12664,0.0362 0.13025,0.0362 0.12664,0.0362 0.12664,0.0362 0.12302,0.0362 0.12663,0.0398 0.12302,0.0362 0.12664,0.0398 0.12302,0.0398 0.12302,0.0398 0.12302,0.0434 0.12302,0.0398 0.1194,0.0434 0.12302,0.0398 0.1194,0.0434 0.1194,0.0434 0.1194,0.047 0.11578,0.0434 0.1194,0.047 0.11579,0.0434 0.1194,0.047 0.11578,0.047 0.11578,0.047 0.11217,0.0506 0.11578,0.047 0.11216,0.0507 0.11579,0.0507 0.11216,0.0507 0.10855,0.0506 0.11216,0.0507 0.11217,0.0543 0.10854,0.0507 0.10855,0.0543 0.10855,0.0543 0.10854,0.0543 0.10493,0.0543 0.10493,0.0579 0.10854,0.0543 0.10493,0.0579 0.10131,0.0579 0.10493,0.0579 0.10131,0.0579 0.10131,0.0615 0.10131,0.0579 0.10131,0.0615 0.10131,0.0615 0.0977,0.0615 0.0977,0.0615 0.0977,0.0615 0.0977,0.0615 0.0941,0.0651 0.0941,0.0651 0.0977,0.0615 0.0905,0.0651 0.0941,0.0687 0.0905,0.0651 0.0941,0.0651 0.0905,0.0687 0.0868,0.0651 0.0904,0.0687 0.0868,0.0687 0.0868,0.0687 0.0868,0.0724 0.0832,0.0687 0.0868,0.0687 0.0832,0.0724 0.0832,0.0724 0.0796,0.0724 0.0832,0.0724 0.0796,0.0724 0.0796,0.0724 0.076,0.0724 0.0796,0.076 0.076,0.0724 0.076,0.076 0.076,0.076 0.0724,0.076 0.076,0.0796 0.0724,0.076 0.0724,0.0796 0.0724,0.0796 0.0724,0.0832 0.0724,0.0796 0.0724,0.0832 0.0724,0.0832 0.0687,0.0868 0.0687,0.0832 0.0724,0.0868 0.0687,0.0868 0.0687,0.0868 0.0688,0.0905 0.0651,0.0868 0.0688,0.0905 0.0651,0.0941 0.0651,0.0905 0.0687,0.0941 0.0651,0.0905 0.0615,0.0977 0.0651,0.0941 0.0651,0.0941 0.0615,0.0977 0.0615,0.0977 0.0615,0.0977 0.0615,0.0977 0.0615,0.10131 0.0615,0.10131 0.0579,0.10131 0.0615,0.10131 0.0579,0.10131 0.0579,0.10493 0.0579,0.10131 0.0579,0.10493 0.0543,0.10854 0.0579,0.10493 0.0543,0.10493 0.0543,0.10855 0.0543,0.10854 0.0543,0.10855 0.0506,0.10854 0.0543,0.11217 0.0507,0.11216 0.0507,0.10855 0.0507,0.11216 0.0507,0.11579 0.0506,0.11216 0.047,0.11578 0.0506,0.11217 0.047,0.11578 0.047,0.11578 0.047,0.11941 0.0434,0.11578 0.047,0.1194 0.0434,0.11578 0.047,0.1194 0.0434,0.1194 0.0434,0.1194 0.0398,0.12302 0.0434,0.11941 0.0398,0.12301 0.0434,0.12302 0.0398,0.12302 0.0398,0.12302 0.0398,0.12664 0.0362,0.12302 0.0398,0.12664 0.0362,0.12301 0.0362,0.12664 0.0362,0.12664 0.0362,0.13025 0.0362,0.12664 0.0326,0.13026 0.0362,0.12664 0.0326,0.13025 0.0326,0.13026 0.0326,0.13025 0.0326,0.13026 0.0289,0.13387 0.0326,0.13026 0.0289,0.13387 0.0289,0.13387 0.029,0.13026 0.0289,0.13387 0.0289,0.1375 0.029,0.13387 0.0253,0.13387 0.0253,0.1375 0.0253,0.13749 0.0253,0.13387 0.0253,0.13749 0.0253,0.1375 0.0253,0.13749 0.0217,0.14111 0.0217,0.13749 0.0253,0.14111 0.0217,0.13749 0.0217,0.14111 0.0181,0.14111 0.0217,0.14111 0.0181,0.14111 0.0217,0.14111 0.0181,0.14473 0.0181,0.14111 0.0181,0.14473 0.0181,0.14473 0.0181,0.14111 0.0145,0.14473 0.0181,0.14473 0.0145,0.14834 0.0181,0.14473 0.0145,0.14473 0.0145,0.14835 0.0145,0.14472 0.0109,0.14835 0.0145,0.14835 0.0145,0.14834 0.0109,0.14835 0.0109,0.14835 0.0145,0.14834 0.0109,0.15197 0.0109,0.14835 0.0109,0.15196 0.007,0.14835 0.0109,0.15196 0.0109,0.15197 0.007,0.15196 0.0109,0.15197 0.007,0.15196 0.007,0.15558 0.0109,0.15197 0.007,0.15558 0.007,0.15197 0.004,0.15558 0.007,0.15558 0.007,0.15559 0.007,0.15558 0.004,0.15558 0.007,0.15559 0.004,0.15558 0.004,0.1592 0.007,0.15558 0.004,0.1592 0.004,0.15921 0.004,0.1592 0.004,0.15558 0.004,0.1592 0.004,0.16282 0.004,0.1592 0.004,0.1592 v 0.16282 l 0.004,0.1592 0.004,0.16282 v 0.1592 l 0.004,0.16282 v 0.16282 0.16282 l 0.004,0.16282 v 0.16282 0.16644 l 0.004,0.16282 v 0.16644 0.16282 0.16643 0.16644 l 0.004,0.16644 v 0.16644 0.16644 0.16643 0.16644 0.17006 0.16643 0.17006 0.16644 0.17005 0.17006 z"
         style="fill:#80ff80;fill-opacity:1;stroke:#000000;stroke-width:3.08243"
         id="path3230"
         transform="translate(6)" />
      <path
         clip-path="url(#p7ec56af071)"
         d="m 164.65323,179.31738 v 0.17006 0.17005 0.17006 0.17367 0.17006 0.17005 0.17368 0.17367 0.17006 0.17367 l -0.004,0.17368 v 0.17367 0.17367 0.1773 0.17367 l -0.004,0.17367 v 0.1773 0.17729 l -0.004,0.17367 v 0.1773 l -0.004,0.17729 v 0.17729 l -0.004,0.17729 v 0.1773 l -0.004,0.18091 -0.004,0.17729 -0.004,0.18091 -0.004,0.17729 -0.004,0.18091 -0.004,0.18091 -0.004,0.18091 -0.004,0.18091 -0.004,0.18091 -0.007,0.18091 -0.004,0.18091 -0.007,0.18453 -0.007,0.18091 -0.004,0.18453 -0.007,0.18091 -0.007,0.18453 -0.007,0.18453 -0.007,0.18453 -0.0109,0.18453 -0.007,0.18453 -0.007,0.18453 -0.0109,0.18814 -0.0109,0.18453 -0.0109,0.18815 -0.0109,0.18453 -0.0109,0.18814 -0.0109,0.18815 -0.0109,0.18815 -0.0145,0.18453 -0.0109,0.18814 -0.0145,0.19177 -0.0145,0.18815 -0.0145,0.18814 -0.0181,0.19177 -0.0145,0.18814 -0.0181,0.19177 -0.0145,0.18815 -0.0181,0.19176 -0.0181,0.19177 -0.0217,0.19176 -0.0181,0.19177 -0.0217,0.19176 -0.0181,0.19177 -0.0217,0.19176 -0.0217,0.19177 -0.0253,0.19538 -0.0217,0.19177 -0.0253,0.19538 -0.0253,0.19177 -0.0253,0.19538 -0.0289,0.19538 -0.0253,0.19177 -0.0289,0.19538 -0.0289,0.19538 -0.029,0.19539 -0.0326,0.19538 -0.029,0.19538 -0.0326,0.19901 -0.0326,0.19538 -0.0362,0.19538 -0.0326,0.19539 -0.0362,0.199 -0.0362,0.19538 -0.0398,0.199 -0.0362,0.199 -0.0398,0.19539 -0.0398,0.199 -0.0434,0.199 -0.0398,0.19538 -0.0434,0.19901 -0.0434,0.199 -0.047,0.199 -0.047,0.199 -0.047,0.199 -0.047,0.199 -0.0507,0.19901 -0.047,0.199 -0.0543,0.199 -0.0507,0.199 -0.0543,0.199 -0.0543,0.199 -0.0579,0.19901 -0.0543,0.20262 -0.0579,0.199 -0.0615,0.199 -0.0579,0.199 -0.0615,0.199 -0.0651,0.199 -0.0651,0.20262 -0.0651,0.199 -0.0651,0.19901 -0.0687,0.199 -0.0687,0.199 -0.0687,0.199 -0.0724,0.20262 -0.0724,0.199 -0.0724,0.199 -0.076,0.19901 -0.076,0.199 -0.0796,0.199 -0.0796,0.199 -0.0796,0.19538 -0.0832,0.19901 -0.0832,0.199 -0.0832,0.199 -0.0868,0.19538 -0.0868,0.199 -0.0905,0.199 -0.0905,0.19539 -0.0905,0.19538 -0.0941,0.199 -0.0941,0.19539 -0.0977,0.19538 -0.0977,0.19538 -0.0977,0.19539 -0.10131,0.19538 -0.10493,0.19538 -0.10131,0.19177 -0.10493,0.19538 -0.10854,0.19177 -0.10855,0.19176 -0.10855,0.19177 -0.11216,0.19176 -0.11217,0.19177 -0.11578,0.19176 -0.11578,0.19177 -0.11578,0.18815 -0.11941,0.18814 -0.12301,0.18815 -0.11941,0.18815 -0.12663,0.18814 -0.12302,0.18815 -0.13026,0.18453 -0.12664,0.18453 -0.13025,0.18453 -0.13387,0.18453 -0.13388,0.18452 -0.13387,0.18091 -0.13749,0.18092 -0.14111,0.18091 -0.1375,0.18091 -0.14472,0.17729 -0.14111,0.17729 -0.14835,0.17729 -0.14473,0.1773 -0.14835,0.17367 -0.15196,0.17729 -0.15197,0.17006 -0.15558,0.17367 -0.15558,0.17006 -0.15559,0.17005 -0.1592,0.17006 -0.16282,0.16644 -0.1592,0.16644 -0.16644,0.16643 -0.16643,0.16644 -0.16644,0.1592 -0.16644,0.16282 -0.17005,0.1592 -0.17006,0.15559 -0.17006,0.15558 -0.17367,0.15558 -0.17006,0.15197 -0.17729,0.15196 -0.17367,0.14835 -0.17729,0.14473 -0.1773,0.14834 -0.17729,0.14111 -0.17729,0.14473 -0.18091,0.13749 -0.18091,0.14111 -0.18091,0.1375 -0.18091,0.13387 -0.18453,0.13387 -0.18453,0.13388 -0.18453,0.13025 -0.18453,0.12664 -0.18453,0.13026 -0.18814,0.12302 -0.18815,0.12663 -0.18815,0.1194 -0.18815,0.12302 -0.18814,0.1194 -0.18815,0.11579 -0.19176,0.11578 -0.19177,0.11578 -0.19177,0.11217 -0.19176,0.11216 -0.19177,0.10855 -0.19176,0.10854 -0.19177,0.10855 -0.19538,0.10493 -0.19176,0.10131 -0.19539,0.10493 -0.19538,0.10131 -0.19538,0.0977 -0.19539,0.0977 -0.19538,0.0977 -0.19538,0.0941 -0.19901,0.0941 -0.19538,0.0905 -0.19538,0.0905 -0.199,0.0905 -0.19901,0.0868 -0.19538,0.0868 -0.199,0.0832 -0.199,0.0832 -0.199,0.0832 -0.19539,0.0796 -0.199,0.0796 -0.199,0.0796 -0.199,0.076 -0.199,0.076 -0.19901,0.0724 -0.199,0.0724 -0.20262,0.0724 -0.199,0.0688 -0.199,0.0687 -0.199,0.0687 -0.199,0.0651 -0.19901,0.0651 -0.20262,0.0651 -0.199,0.0651 -0.199,0.0615 -0.199,0.0579 -0.199,0.0615 -0.199,0.0579 -0.20262,0.0543 -0.199,0.0579 -0.19901,0.0543 -0.199,0.0543 -0.199,0.0506 -0.199,0.0543 -0.199,0.047 -0.199,0.0507 -0.19901,0.047 -0.199,0.047 -0.199,0.047 -0.199,0.047 -0.199,0.0434 -0.199,0.0434 -0.19539,0.0398 -0.199,0.0434 -0.199,0.0398 -0.19538,0.0398 -0.19901,0.0362 -0.199,0.0398 -0.19538,0.0362 -0.199,0.0362 -0.19539,0.0326 -0.19538,0.0362 -0.19538,0.0326 -0.199,0.0326 -0.19539,0.029 -0.19538,0.0326 -0.19538,0.029 -0.19539,0.0289 -0.19538,0.029 -0.19177,0.0253 -0.19538,0.029 -0.19538,0.0253 -0.19177,0.0253 -0.19538,0.0253 -0.19177,0.0217 -0.19538,0.0253 -0.19176,0.0217 -0.19177,0.0217 -0.19176,0.0181 -0.19177,0.0217 -0.19177,0.0181 -0.19176,0.0217 -0.19177,0.0181 -0.19176,0.0181 -0.18815,0.0145 -0.19176,0.0181 -0.18815,0.0145 -0.19177,0.0181 -0.18814,0.0145 -0.18815,0.0145 -0.19176,0.0145 -0.18815,0.0109 -0.18453,0.0145 -0.18815,0.0109 -0.18814,0.0109 -0.18815,0.0109 -0.18453,0.0109 -0.18815,0.0109 -0.18453,0.0109 -0.18814,0.0109 -0.18453,0.007 -0.18453,0.007 -0.18453,0.0109 -0.18453,0.007 -0.18453,0.007 -0.18452,0.007 -0.18092,0.007 -0.18452,0.004 -0.18091,0.007 -0.18453,0.007 -0.18091,0.004 -0.18091,0.007 -0.18091,0.004 -0.18091,0.004 -0.18092,0.004 -0.18091,0.004 -0.18091,0.004 -0.17729,0.004 -0.18091,0.004 -0.17729,0.004 -0.18091,0.004 h -0.17729 l -0.1773,0.004 h -0.17729 l -0.17729,0.004 h -0.17729 l -0.17368,0.004 h -0.17729 -0.17729 l -0.17368,0.004 h -0.17367 -0.17729 -0.17368 -0.17367 l -0.17368,0.004 h -0.17367 -0.17006 -0.17367 -0.17367 -0.17006 -0.17006 -0.17367 -0.17006 -0.17005 -0.17006 v -14.47284 h 0.17006 0.17005 0.16644 0.17006 0.16643 0.17006 0.16644 0.16644 0.16643 0.16644 l 0.16644,-0.004 h 0.16644 0.16643 0.16282 0.16644 l 0.16282,-0.004 h 0.16644 0.16282 l 0.16282,-0.004 h 0.16282 0.16282 l 0.16282,-0.004 h 0.1592 l 0.16282,-0.004 0.1592,-0.004 h 0.16282 l 0.1592,-0.004 0.1592,-0.004 0.16282,-0.004 0.1592,-0.004 0.15559,-0.004 0.1592,-0.004 0.1592,-0.004 0.1592,-0.004 0.15558,-0.007 0.1592,-0.004 0.15559,-0.004 0.15558,-0.007 0.15558,-0.004 0.15559,-0.007 0.15558,-0.007 0.15558,-0.007 0.15558,-0.004 0.15197,-0.007 0.15558,-0.007 0.15197,-0.0109 0.15558,-0.007 0.15196,-0.007 0.15197,-0.0109 0.15196,-0.007 0.15197,-0.0109 0.15196,-0.0109 0.14835,-0.007 0.15197,-0.0109 0.14834,-0.0109 0.15197,-0.0109 0.14834,-0.0145 0.14835,-0.0109 0.14835,-0.0109 0.14834,-0.0145 0.14835,-0.0145 0.14835,-0.0109 0.14473,-0.0145 0.14834,-0.0145 0.14473,-0.0145 0.14473,-0.0181 0.14835,-0.0145 0.14472,-0.0181 0.14473,-0.0145 0.14111,-0.0181 0.14473,-0.0181 0.14473,-0.0181 0.14111,-0.0181 0.14473,-0.0181 0.14111,-0.0217 0.14111,-0.0181 0.14111,-0.0217 0.14111,-0.0181 0.14111,-0.0217 0.13749,-0.0217 0.14111,-0.0253 0.13749,-0.0217 0.14111,-0.0217 0.1375,-0.0253 0.13749,-0.0253 0.13749,-0.0253 0.13387,-0.0253 0.1375,-0.0253 0.13749,-0.0253 0.13387,-0.0253 0.13388,-0.0289 0.13749,-0.029 0.13387,-0.0289 0.13026,-0.0289 0.13387,-0.0289 0.13387,-0.029 0.13026,-0.0326 0.13387,-0.029 0.13026,-0.0326 0.13025,-0.0326 0.13026,-0.0326 0.13026,-0.0326 0.12663,-0.0362 0.13026,-0.0326 0.12664,-0.0362 0.13025,-0.0362 0.12664,-0.0362 0.12664,-0.0362 0.12302,-0.0362 0.12663,-0.0398 0.12302,-0.0362 0.12664,-0.0398 0.12302,-0.0398 0.12302,-0.0398 0.12302,-0.0434 0.12302,-0.0398 0.1194,-0.0434 0.12302,-0.0398 0.1194,-0.0434 0.1194,-0.0434 0.1194,-0.047 0.11578,-0.0434 0.1194,-0.047 0.11579,-0.0434 0.1194,-0.047 0.11578,-0.047 0.11578,-0.047 0.11217,-0.0507 0.11578,-0.047 0.11216,-0.0507 0.11579,-0.0507 0.11216,-0.0507 0.10855,-0.0506 0.11216,-0.0507 0.11217,-0.0543 0.10854,-0.0507 0.10855,-0.0543 0.10855,-0.0543 0.10854,-0.0543 0.10493,-0.0543 0.10493,-0.0579 0.10854,-0.0543 0.10493,-0.0579 0.10131,-0.0579 0.10493,-0.0579 0.10131,-0.0579 0.10131,-0.0615 0.10131,-0.0579 0.10131,-0.0615 0.10131,-0.0615 0.0977,-0.0615 0.0977,-0.0615 0.0977,-0.0615 0.0977,-0.0615 0.0941,-0.0651 0.0941,-0.0651 0.0977,-0.0615 0.0905,-0.0651 0.0941,-0.0687 0.0905,-0.0651 0.0941,-0.0651 0.0905,-0.0687 0.0868,-0.0651 0.0904,-0.0687 0.0868,-0.0687 0.0868,-0.0687 0.0868,-0.0724 0.0832,-0.0687 0.0868,-0.0687 0.0832,-0.0724 0.0832,-0.0724 0.0796,-0.0724 0.0832,-0.0724 0.0796,-0.0724 0.0796,-0.0724 0.076,-0.0724 0.0796,-0.076 0.076,-0.0724 0.076,-0.076 0.076,-0.076 0.0724,-0.076 0.076,-0.0796 0.0724,-0.076 0.0724,-0.0796 0.0724,-0.0796 0.0724,-0.0832 0.0724,-0.0796 0.0724,-0.0832 0.0724,-0.0832 0.0687,-0.0868 0.0687,-0.0832 0.0724,-0.0868 0.0687,-0.0868 0.0687,-0.0868 0.0688,-0.0905 0.0651,-0.0868 0.0688,-0.0905 0.0651,-0.0941 0.0651,-0.0905 0.0687,-0.0941 0.0651,-0.0905 0.0615,-0.0977 0.0651,-0.0941 0.0651,-0.0941 0.0615,-0.0977 0.0615,-0.0977 0.0615,-0.0977 0.0615,-0.0977 0.0615,-0.10131 0.0615,-0.10131 0.0579,-0.10131 0.0615,-0.10131 0.0579,-0.10131 0.0579,-0.10493 0.0579,-0.10131 0.0579,-0.10493 0.0543,-0.10854 0.0579,-0.10493 0.0543,-0.10493 0.0543,-0.10855 0.0543,-0.10854 0.0543,-0.10855 0.0506,-0.10855 0.0543,-0.11216 0.0507,-0.11216 0.0507,-0.10855 0.0507,-0.11216 0.0507,-0.11579 0.0506,-0.11216 0.047,-0.11579 0.0506,-0.11216 0.047,-0.11578 0.047,-0.11579 0.047,-0.1194 0.0434,-0.11578 0.047,-0.1194 0.0434,-0.11578 0.047,-0.1194 0.0434,-0.1194 0.0434,-0.11941 0.0398,-0.12301 0.0434,-0.11941 0.0398,-0.12301 0.0434,-0.12302 0.0398,-0.12302 0.0398,-0.12302 0.0398,-0.12664 0.0362,-0.12302 0.0398,-0.12664 0.0362,-0.12302 0.0362,-0.12663 0.0362,-0.12664 0.0362,-0.13026 0.0362,-0.12663 0.0326,-0.13026 0.0362,-0.12664 0.0326,-0.13025 0.0326,-0.13026 0.0326,-0.13025 0.0326,-0.13026 0.0289,-0.13387 0.0326,-0.13026 0.0289,-0.13387 0.0289,-0.13388 0.029,-0.13025 0.0289,-0.13387 0.0289,-0.1375 0.029,-0.13387 0.0253,-0.13387 0.0253,-0.1375 0.0253,-0.13749 0.0253,-0.13387 0.0253,-0.13749 0.0253,-0.1375 0.0253,-0.13749 0.0217,-0.14111 0.0217,-0.13749 0.0253,-0.14111 0.0217,-0.13749 0.0217,-0.14111 0.0181,-0.14111 0.0217,-0.14111 0.0181,-0.14111 0.0217,-0.14111 0.0181,-0.14473 0.0181,-0.14111 0.0181,-0.14473 0.0181,-0.14473 0.0181,-0.14111 0.0145,-0.14473 0.0181,-0.14473 0.0145,-0.14834 0.0181,-0.14473 0.0145,-0.14473 0.0145,-0.14835 0.0145,-0.14472 0.0109,-0.14835 0.0145,-0.14835 0.0145,-0.14834 0.0109,-0.14835 0.0109,-0.14835 0.0145,-0.14834 0.0109,-0.15197 0.0109,-0.14835 0.0109,-0.15196 0.007,-0.14835 0.0109,-0.15196 0.0109,-0.15197 0.007,-0.15196 0.0109,-0.15197 0.007,-0.15196 0.007,-0.15559 0.0109,-0.15196 0.007,-0.15558 0.007,-0.15197 0.004,-0.15558 0.007,-0.15558 0.007,-0.15559 0.007,-0.15558 0.004,-0.15558 0.007,-0.15559 0.004,-0.15558 0.004,-0.1592 0.007,-0.15558 0.004,-0.15921 0.004,-0.1592 0.004,-0.1592 0.004,-0.15558 0.004,-0.1592 0.004,-0.16282 0.004,-0.1592 0.004,-0.1592 v -0.16282 l 0.004,-0.1592 0.004,-0.16282 v -0.15921 l 0.004,-0.16281 v -0.16282 -0.16282 l 0.004,-0.16282 v -0.16282 -0.16644 l 0.004,-0.16282 v -0.16644 -0.16282 -0.16644 -0.16643 l 0.004,-0.16644 v -0.16644 -0.16644 -0.16643 -0.16644 -0.17006 -0.16643 -0.17006 -0.16644 -0.17005 -0.17006 z"
         style="fill:#80ff80;fill-opacity:1;stroke:#000000;stroke-width:3.08243"
         id="path3232"
         transform="translate(6)" />
      <path
         clip-path="url(#p7ec56af071)"
         d="m 121.2347,78.007476 h 36.18211 V 63.534633 H 121.2347 Z"
         style="fill:#80ff80;fill-opacity:1;stroke:#000000;stroke-width:3.08243"
         id="path3234"
         transform="translate(6)" />
      <path
         clip-path="url(#p7ec56af071)"
         d="M 85.052593,222.73591 H 121.2347 V 208.26307 H 85.052593 Z"
         style="fill:#80ff80;fill-opacity:1;stroke:#000000;stroke-width:3.08243"
         id="path3236"
         transform="translate(6)" />
      <path
         clip-path="url(#p7ec56af071)"
         d="m 242.44477,179.31738 -0.0258,-1.18368 -0.0774,-1.18143 -0.12889,-1.17692 -0.18011,-1.17019 -0.23098,-1.16121 -0.28141,-1.15003 -0.33131,-1.13667 -0.38057,-1.12113 -0.42911,-1.10346 -0.47684,-1.0837 -0.52365,-1.06186 -0.56948,-1.03801 -0.61421,-1.01218 -0.65777,-0.98443 -0.70009,-0.9548 -0.74107,-0.92336 -0.78064,-0.89015 -0.81873,-0.85525 -0.85525,-0.81873 -0.89015,-0.78064 -0.92335,-0.74107 -0.9548,-0.70009 -0.98443,-0.65777 -1.01219,-0.61421 -1.03801,-0.56947 -1.06186,-0.52366 -1.0837,-0.47683 -1.10346,-0.42911 -1.12113,-0.38058 -1.13666,-0.33131 -1.15003,-0.28141 -1.16122,-0.23098 -1.17018,-0.1801 -1.17693,-0.1289 -1.18142,-0.0774 -1.18369,-0.0258 -1.18368,0.0258 -1.18142,0.0774 -1.17693,0.1289 -1.17018,0.1801 -1.16122,0.23098 -1.15003,0.28141 -1.13666,0.33131 -1.12113,0.38058 -1.10347,0.42911 -1.08369,0.47683 -1.06186,0.52366 -1.03802,0.56947 -1.01218,0.61421 -0.98443,0.65777 -0.9548,0.70009 -0.92335,0.74107 -0.89015,0.78064 -0.85526,0.81873 -0.81872,0.85525 -0.78064,0.89015 -0.74107,0.92336 -0.70009,0.9548 -0.65778,0.98443 -0.6142,1.01218 -0.56948,1.03801 -0.52365,1.06186 -0.47684,1.0837 -0.42911,1.10346 -0.38057,1.12113 -0.33131,1.13667 -0.28141,1.15003 -0.23098,1.16121 -0.18011,1.17019 -0.12889,1.17692 -0.0774,1.18143 -0.0258,1.18368 0.0258,1.18368 0.0774,1.18143 0.12889,1.17693 0.18011,1.17018 0.23098,1.16121 0.28141,1.15003 0.33131,1.13667 0.38057,1.12113 0.42911,1.10346 0.47684,1.08369 0.52365,1.06187 0.56948,1.03801 0.6142,1.01218 0.65778,0.98443 0.70009,0.9548 0.74107,0.92336 0.78064,0.89015 0.81872,0.85525 0.85526,0.81873 0.89015,0.78064 0.92335,0.74107 0.9548,0.70009 0.98443,0.65777 1.01218,0.61421 1.03802,0.56947 1.06186,0.52365 1.08369,0.47684 1.10347,0.42912 1.12113,0.38057 1.13666,0.3313 1.15003,0.28142 1.16122,0.23098 1.17018,0.1801 1.17693,0.1289 1.18142,0.0774 1.18368,0.0258 1.18369,-0.0258 1.18142,-0.0774 1.17693,-0.1289 1.17018,-0.1801 1.16122,-0.23098 1.15003,-0.28142 1.13666,-0.3313 1.12113,-0.38057 1.10346,-0.42912 1.0837,-0.47684 1.06186,-0.52365 1.03801,-0.56947 1.01219,-0.61421 0.98443,-0.65777 0.9548,-0.70009 0.92335,-0.74107 0.89015,-0.78064 0.85525,-0.81873 0.81873,-0.85525 0.78064,-0.89015 0.74107,-0.92336 0.70009,-0.9548 0.65777,-0.98443 0.61421,-1.01218 0.56948,-1.03801 0.52365,-1.06187 0.47684,-1.08369 0.42911,-1.10346 0.38057,-1.12113 0.33131,-1.13667 0.28141,-1.15003 0.23098,-1.16121 0.18011,-1.17018 0.12889,-1.17693 0.0774,-1.18143 0.0258,-1.18368 h 14.47284 l -0.0396,1.81498 -0.11874,1.81152 -0.19763,1.80462 -0.27617,1.79428 -0.35417,1.78053 -0.4315,1.76338 -0.508,1.74289 -0.58355,1.71906 -0.65797,1.69198 -0.73115,1.66166 -0.80294,1.62819 -0.87319,1.59162 -0.94178,1.55202 -1.00859,1.50946 -1.07347,1.46402 -1.13631,1.41581 -1.19698,1.3649 -1.25538,1.31139 -1.31139,1.25538 -1.36489,1.19698 -1.41581,1.13631 -1.46403,1.07347 -1.50946,1.00858 -1.55201,0.94179 -1.59162,0.87319 -1.62819,0.80294 -1.66167,0.73115 -1.69197,0.65797 -1.71907,0.58354 -1.74288,0.50801 -1.76339,0.4315 -1.78053,0.35416 -1.79428,0.27617 -1.80462,0.19764 -1.81152,0.11873 -1.81498,0.0396 -1.81497,-0.0396 -1.81153,-0.11873 -1.80462,-0.19764 -1.79428,-0.27617 -1.78052,-0.35416 -1.76339,-0.4315 -1.74288,-0.50801 -1.71907,-0.58354 -1.69197,-0.65797 -1.66167,-0.73115 -1.62819,-0.80294 -1.59162,-0.87319 -1.55201,-0.94179 -1.50946,-1.00858 -1.46403,-1.07347 -1.41581,-1.13631 -1.3649,-1.19698 -1.31138,-1.25538 -1.25538,-1.31139 -1.19698,-1.3649 -1.13631,-1.41581 -1.07347,-1.46402 -1.00859,-1.50946 -0.94179,-1.55202 -0.87319,-1.59162 -0.80293,-1.62819 -0.73115,-1.66166 -0.65798,-1.69198 -0.58354,-1.71906 -0.508,-1.74289 -0.4315,-1.76338 -0.35417,-1.78053 -0.27617,-1.79428 -0.19763,-1.80462 -0.11874,-1.81152 -0.0396,-1.81498 0.0396,-1.81498 0.11874,-1.81152 0.19763,-1.80462 0.27617,-1.79428 0.35417,-1.78053 0.4315,-1.76338 0.508,-1.74289 0.58354,-1.71906 0.65798,-1.69198 0.73115,-1.66166 0.80293,-1.62819 0.87319,-1.59162 0.94179,-1.55202 1.00859,-1.50945 1.07347,-1.46403 1.13631,-1.41581 1.19698,-1.3649 1.25538,-1.31139 1.31138,-1.25538 1.3649,-1.19698 1.41581,-1.13631 1.46403,-1.07347 1.50946,-1.00858 1.55201,-0.94179 1.59162,-0.87319 1.62819,-0.80294 1.66167,-0.73115 1.69197,-0.65797 1.71907,-0.58354 1.74288,-0.50801 1.76339,-0.4315 1.78052,-0.35416 1.79428,-0.27617 1.80462,-0.19764 1.81153,-0.11873 1.81497,-0.0396 1.81498,0.0396 1.81152,0.11873 1.80462,0.19764 1.79428,0.27617 1.78053,0.35416 1.76339,0.4315 1.74288,0.50801 1.71907,0.58354 1.69197,0.65797 1.66167,0.73115 1.62819,0.80294 1.59162,0.87319 1.55201,0.94179 1.50946,1.00858 1.46403,1.07347 1.41581,1.13631 1.36489,1.19698 1.31139,1.25538 1.25538,1.31139 1.19698,1.3649 1.13631,1.41581 1.07347,1.46403 1.00859,1.50945 0.94178,1.55202 0.87319,1.59162 0.80294,1.62819 0.73115,1.66166 0.65797,1.69198 0.58355,1.71906 0.508,1.74289 0.4315,1.76338 0.35417,1.78053 0.27617,1.79428 0.19763,1.80462 0.11874,1.81152 0.0396,1.81498 z"
         style="fill:#ff8080;fill-opacity:1;stroke:#000000;stroke-width:3.08243"
         id="path3238" />
      <path
         clip-path="url(#p7ec56af071)"
         d="m 273.65183,188.36291 v -48.84585 h -14.47284 v 48.84585 z"
         style="fill:#ff8080;fill-opacity:1;stroke:#000000;stroke-width:3.08243"
         id="path3240" />
      <path
         clip-path="url(#p7ec56af071)"
         d="m 259.17899,188.36291 v 0.11216 0.11217 0.11578 0.11216 0.11579 0.11216 0.11578 0.11217 0.11578 0.11578 0.11579 0.11578 0.11578 0.11578 l 0.004,0.11579 v 0.11578 0.11578 0.11579 0.1194 0.11578 l 0.004,0.1194 v 0.11578 0.1194 0.1194 l 0.004,0.11579 v 0.1194 0.1194 l 0.004,0.1194 v 0.1194 l 0.004,0.1194 v 0.1194 l 0.004,0.12302 v 0.1194 l 0.004,0.1194 0.004,0.12302 v 0.1194 l 0.004,0.12302 0.004,0.1194 0.004,0.12302 0.004,0.12302 v 0.1194 l 0.004,0.12302 0.004,0.12302 0.004,0.12302 0.004,0.12302 0.007,0.12302 0.004,0.12302 0.004,0.12664 0.004,0.12302 0.007,0.12302 0.004,0.12663 0.007,0.12302 0.004,0.12664 0.007,0.12302 0.007,0.12663 0.004,0.12664 0.007,0.12664 0.007,0.12302 0.007,0.12664 0.007,0.12663 0.007,0.12664 0.007,0.12664 0.007,0.13025 0.0109,0.12664 0.007,0.12664 0.0109,0.12664 0.007,0.13025 0.0109,0.12664 0.0109,0.13025 0.007,0.12664 0.0109,0.13026 0.0109,0.13025 0.0109,0.12664 0.0109,0.13026 0.0145,0.13025 0.0109,0.13026 0.0109,0.13025 0.0145,0.13026 0.0145,0.13025 0.0109,0.13026 0.0145,0.13387 0.0145,0.13026 0.0145,0.13025 0.0145,0.13026 0.0181,0.13387 0.0145,0.13026 0.0145,0.13387 0.0181,0.13026 0.0181,0.13387 0.0181,0.13388 0.0145,0.13387 0.0181,0.13026 0.0217,0.13387 0.0181,0.13387 0.0181,0.13388 0.0217,0.13387 0.0217,0.13388 0.0181,0.13387 0.0217,0.13387 0.0217,0.13388 0.0217,0.13387 0.0253,0.13749 0.0217,0.13388 0.0253,0.13387 0.0217,0.13749 0.0253,0.13388 0.0253,0.13749 0.0253,0.13387 0.0289,0.13749 0.0253,0.13388 0.029,0.13749 0.0253,0.13387 0.029,0.1375 0.029,0.13749 0.0326,0.13387 0.0289,0.13749 0.0289,0.1375 0.0326,0.13749 0.0326,0.13749 0.0326,0.13749 0.0326,0.13749 0.0326,0.1375 0.0362,0.13749 0.0326,0.13749 0.0362,0.13749 0.0362,0.13749 0.0362,0.1375 0.0398,0.13749 0.0362,0.13749 0.0398,0.13749 0.0398,0.13749 0.0398,0.1375 0.0398,0.13749 0.0398,0.14111 0.0434,0.13749 0.0434,0.13749 0.0434,0.13749 0.0434,0.14111 0.0434,0.1375 0.047,0.13749 0.0434,0.13749 0.047,0.14111 0.047,0.13749 0.0507,0.13749 0.047,0.1375 0.0507,0.14111 0.0507,0.13749 0.0507,0.13749 0.0507,0.13749 0.0543,0.13749 0.0543,0.14111 0.0543,0.1375 0.0543,0.13749 0.0543,0.13749 0.0579,0.13749 0.0579,0.14111 0.0579,0.13749 0.0579,0.1375 0.0615,0.13749 0.0579,0.13749 0.0615,0.13749 0.0651,0.13749 0.0615,0.1375 0.0651,0.13749 0.0615,0.13749 0.0651,0.13387 0.0688,0.1375 0.0651,0.13749 0.0687,0.13749 0.0687,0.13387 0.0688,0.1375 0.0724,0.13749 0.0724,0.13387 0.0724,0.13388 0.0724,0.13749 0.0724,0.13387 0.076,0.13749 0.076,0.13388 0.076,0.13387 0.0796,0.13388 0.076,0.13387 0.0796,0.13387 0.0832,0.13388 0.0796,0.13387 0.0832,0.13026 0.0832,0.13387 0.0832,0.13387 0.0868,0.13026 0.0832,0.13026 0.0868,0.13387 0.0904,0.13025 0.0868,0.13026 0.0905,0.13026 0.0905,0.13025 0.0905,0.13026 0.0941,0.12663 0.0941,0.13026 0.0941,0.12664 0.0941,0.13025 0.0977,0.12664 0.0977,0.12664 0.0977,0.12663 0.0977,0.12664 0.10132,0.12302 0.1013,0.12664 0.10131,0.12302 0.10493,0.12664 0.10493,0.12301 0.10493,0.12302 0.10493,0.12302 0.10854,0.1194 0.10855,0.12302 0.10855,0.1194 0.10854,0.1194 0.11217,0.11941 0.11216,0.1194 0.11217,0.1194 0.11578,0.1194 0.11578,0.11578 0.11578,0.11578 0.11579,0.11579 0.1194,0.11578 0.1194,0.11216 0.1194,0.11579 0.12302,0.11216 0.1194,0.11217 0.12302,0.11216 0.12664,0.11217 0.12302,0.10854 0.12663,0.10855 0.12664,0.10854 0.13026,0.10855 0.12663,0.10493 0.13026,0.10854 0.13387,0.10493 0.13026,0.10131 0.13387,0.10493 0.13388,0.10131 0.13387,0.10131 0.13749,0.10131 0.13749,0.10131 0.1375,0.0977 0.13749,0.0977 0.14111,0.0977 0.14111,0.0941 0.14111,0.0941 0.14473,0.0941 0.14111,0.0941 0.14473,0.0905 0.14472,0.0905 0.14835,0.0905 0.14835,0.0905 0.14834,0.0868 0.14835,0.0868 0.15197,0.0832 0.14834,0.0868 0.15197,0.0832 0.15558,0.0796 0.15197,0.0796 0.15558,0.0796 0.15558,0.0796 0.15558,0.076 0.15921,0.076 0.15558,0.076 0.1592,0.0724 0.1592,0.0724 0.16282,0.0724 0.1592,0.0687 0.16282,0.0687 0.16282,0.0651 0.16282,0.0651 0.16644,0.0651 0.16282,0.0615 0.16282,0.0579 0.16643,0.0615 0.16282,0.0579 0.16644,0.0543 0.16644,0.0543 0.16282,0.0543 0.16644,0.0506 0.16643,0.0507 0.16644,0.0506 0.16644,0.047 0.16644,0.047 0.16644,0.0434 0.16643,0.0434 0.16644,0.0398 0.16644,0.0398 0.17005,0.0398 0.16644,0.0362 0.16644,0.0362 0.16644,0.0362 0.17005,0.0326 0.16644,0.0326 0.16644,0.029 0.16644,0.0289 0.17005,0.029 0.16644,0.0253 0.16644,0.0253 0.16644,0.0253 0.17005,0.0217 0.16644,0.0217 0.16644,0.0181 0.16643,0.0181 0.16644,0.0181 0.16644,0.0145 0.16644,0.0145 0.16644,0.0145 0.16643,0.0109 0.16644,0.0109 0.16644,0.0108 0.16644,0.007 0.16643,0.007 0.16644,0.007 0.16282,0.004 0.16644,0.004 0.16644,0.004 h 0.16282 0.16643 0.16282 l 0.16282,-0.004 0.16644,-0.004 0.16282,-0.004 0.16282,-0.007 0.16282,-0.007 0.16282,-0.007 0.16282,-0.0108 0.1592,-0.0109 0.16282,-0.0109 0.16282,-0.0109 0.1592,-0.0145 0.16282,-0.0145 0.1592,-0.0181 0.1592,-0.0145 0.1592,-0.0181 0.1592,-0.0181 0.1592,-0.0217 0.15921,-0.0217 0.1592,-0.0217 0.1592,-0.0217 0.15558,-0.0253 0.1592,-0.0217 0.15559,-0.0289 0.15558,-0.0253 0.15558,-0.0289 0.15559,-0.0289 0.15558,-0.029 0.15558,-0.0289 0.15197,-0.0326 0.15558,-0.0326 0.15196,-0.0326 0.15559,-0.0326 0.15196,-0.0362 0.15197,-0.0362 0.15196,-0.0362 0.14835,-0.0362 0.15196,-0.0398 0.15197,-0.0398 0.14834,-0.0398 0.14835,-0.0398 0.14835,-0.0434 0.14834,-0.0398 0.14835,-0.0434 0.14835,-0.0434 0.14834,-0.047 0.14473,-0.0434 0.14835,-0.047 0.14473,-0.047 0.14473,-0.047 0.14473,-0.0507 0.14472,-0.047 0.14111,-0.0506 0.14473,-0.0507 0.14111,-0.0506 0.14473,-0.0507 0.14111,-0.0543 0.14111,-0.0543 0.14111,-0.0543 0.13749,-0.0543 0.14111,-0.0543 0.1375,-0.0543 0.14111,-0.0579 0.13749,-0.0579 0.13749,-0.0579 0.13749,-0.0579 0.13388,-0.0579 0.13749,-0.0579 0.13387,-0.0615 0.13749,-0.0615 0.13388,-0.0615 0.13387,-0.0615 0.13388,-0.0615 0.13387,-0.0615 0.13025,-0.0651 0.13388,-0.0615 0.13025,-0.0651 0.13026,-0.0651 0.13026,-0.0651 0.13025,-0.0651 0.13026,-0.0651 0.13025,-0.0687 0.12664,-0.0651 0.12664,-0.0687 0.13025,-0.0687 0.12664,-0.0687 0.12664,-0.0687 0.12302,-0.0687 0.12663,-0.0687 0.12664,-0.0724 0.12302,-0.0687 0.12302,-0.0724 0.12302,-0.0724 0.12302,-0.0724 0.12302,-0.0724 0.12302,-0.0724 0.1194,-0.0724 0.12302,-0.0724 0.1194,-0.0724 0.1194,-0.076 0.1194,-0.0724 0.1194,-0.076 0.1194,-0.076 0.11578,-0.076 0.11941,-0.0724 0.11578,-0.076 0.11578,-0.0796 0.1194,-0.076 0.11217,-0.076 0.11578,-0.076 0.11578,-0.0796 0.11578,-0.076 0.11217,-0.0796 0.11216,-0.076 0.11217,-0.0796 0.11216,-0.0796 0.11217,-0.076 0.11216,-0.0796 0.11217,-0.0796 0.10854,-0.0796 0.11217,-0.0796 0.10854,-0.0796 0.10855,-0.0832 0.10855,-0.0796 0.10854,-0.0796 0.10855,-0.0796 0.10854,-0.0832 0.10493,-0.0796 0.10855,-0.0832 0.10493,-0.0796 0.10493,-0.0832 0.10492,-0.0832 0.10493,-0.0796 0.10493,-0.0832 0.10493,-0.0832 0.10493,-0.0796 0.10131,-0.0832 0.10492,-0.0832 0.10131,-0.0832 0.10131,-0.0832 0.10131,-0.0832 0.10131,-0.0832 0.10131,-0.0832 0.10131,-0.0832 0.10131,-0.0832 0.0977,-0.0832 0.10131,-0.0832 0.0977,-0.0832 0.0977,-0.0832 0.0977,-0.0868 0.0977,-0.0832 0.0977,-0.0832 0.0977,-0.0832 0.0977,-0.0832 0.0941,-0.0868 0.0977,-0.0832 0.0941,-0.0832 0.0977,-0.0868 0.0941,-0.0832 0.0941,-0.0832 0.0941,-0.0832 0.0941,-0.0868 0.0941,-0.0832 0.0941,-0.0832 0.0941,-0.0868 0.0905,-0.0832 0.0941,-0.0832 0.0905,-0.0868 0.0941,-0.0832 0.0904,-0.0832 0.0905,-0.0868 0.0905,-0.0832 0.0905,-0.0832 0.0904,-0.0868 0.0905,-0.0832 0.0905,-0.0832 0.0868,-0.0868 0.0905,-0.0832 0.0905,-0.0832 0.0868,-0.0832 0.0868,-0.0868 0.0904,-0.0832 0.0868,-0.0832 0.0868,-0.0832 0.0868,-0.0832 0.0868,-0.0832 0.0868,-0.0868 0.0868,-0.0832 0.0868,-0.0832 0.0832,-0.0832 0.0868,-0.0832 0.0868,-0.0832 0.0832,-0.0832 0.0868,-0.0832 0.0832,-0.0832 0.0832,-0.0832 0.0868,-0.0832 0.0832,-0.0796 0.0832,-0.0832 0.0832,-0.0832 0.0832,-0.0832 0.0832,-0.0796 0.0832,-0.0832 0.0832,-0.0832 0.0832,-0.0796 0.0796,-0.0832 0.0832,-0.0832 0.0832,-0.0796 0.0796,-0.0832 0.0832,-0.0796 0.0796,-0.0796 0.0796,-0.0832 0.0832,-0.0796 0.0796,-0.0796 0.0796,-0.0832 0.0832,-0.0796 0.0796,-0.0796 0.0796,-0.0796 0.0796,-0.0796 -10.23592,-10.23592 -0.0796,0.0796 -0.0796,0.0796 -0.076,0.0796 -0.0796,0.0796 -0.0796,0.0796 -0.0796,0.0796 -0.0796,0.076 -0.076,0.0796 -0.0796,0.0796 -0.0796,0.076 -0.076,0.0796 -0.0796,0.076 -0.076,0.0796 -0.0796,0.076 -0.076,0.076 -0.0796,0.0796 -0.076,0.076 -0.076,0.076 -0.0796,0.076 -0.076,0.076 -0.076,0.076 -0.076,0.076 -0.0796,0.076 -0.076,0.0724 -0.076,0.076 -0.076,0.076 -0.076,0.0724 -0.076,0.076 -0.076,0.0724 -0.076,0.076 -0.076,0.0724 -0.076,0.0724 -0.076,0.0724 -0.076,0.076 -0.0724,0.0724 -0.076,0.0724 -0.076,0.0687 -0.076,0.0724 -0.076,0.0724 -0.0724,0.0724 -0.076,0.0687 -0.076,0.0724 -0.0724,0.0687 -0.076,0.0724 -0.076,0.0687 -0.0724,0.0687 -0.076,0.0724 -0.0724,0.0687 -0.076,0.0688 -0.0724,0.0687 -0.076,0.0687 -0.0724,0.0651 -0.076,0.0687 -0.0724,0.0687 -0.076,0.0651 -0.0724,0.0687 -0.076,0.0651 -0.0724,0.0651 -0.0724,0.0687 -0.076,0.0651 -0.0724,0.0651 -0.076,0.0651 -0.0724,0.0651 -0.0724,0.0651 -0.0724,0.0615 -0.076,0.0651 -0.0724,0.0651 -0.0724,0.0615 -0.076,0.0615 -0.0724,0.0651 -0.0724,0.0615 -0.0724,0.0615 -0.076,0.0615 -0.0724,0.0615 -0.0724,0.0615 -0.0724,0.0615 -0.0724,0.0579 -0.076,0.0615 -0.0724,0.0579 -0.0724,0.0615 -0.0724,0.0579 -0.0724,0.0579 -0.0724,0.0579 -0.0724,0.0579 -0.076,0.0579 -0.0724,0.0579 -0.0724,0.0579 -0.0724,0.0543 -0.0724,0.0579 -0.0724,0.0543 -0.0724,0.0579 -0.0724,0.0543 -0.0724,0.0543 -0.0724,0.0543 -0.076,0.0543 -0.0724,0.0543 -0.0724,0.0543 -0.0724,0.0507 -0.0724,0.0543 -0.0724,0.0507 -0.0724,0.0543 -0.0724,0.0506 -0.0724,0.0507 -0.0724,0.0506 -0.0724,0.0507 -0.0724,0.0507 -0.0724,0.047 -0.0724,0.0507 -0.0724,0.047 -0.0724,0.0507 -0.0724,0.047 -0.0724,0.047 -0.0724,0.047 -0.0687,0.047 -0.0724,0.047 -0.0724,0.047 -0.0724,0.0434 -0.0724,0.047 -0.0724,0.0434 -0.0724,0.047 -0.0724,0.0434 -0.0724,0.0434 -0.0724,0.0434 -0.0688,0.0434 -0.0724,0.0398 -0.0724,0.0434 -0.0724,0.0398 -0.0724,0.0434 -0.0724,0.0398 -0.0687,0.0398 -0.0724,0.0398 -0.0724,0.0398 -0.0724,0.0398 -0.0724,0.0362 -0.0688,0.0398 -0.0724,0.0398 -0.0724,0.0362 -0.0724,0.0362 -0.0687,0.0362 -0.0724,0.0362 -0.0724,0.0362 -0.0687,0.0362 -0.0724,0.0326 -0.0724,0.0362 -0.0687,0.0326 -0.0724,0.0326 -0.0687,0.0362 -0.0724,0.0326 -0.0724,0.0289 -0.0687,0.0326 -0.0724,0.0326 -0.0688,0.029 -0.0724,0.0326 -0.0687,0.0289 -0.0724,0.029 -0.0688,0.029 -0.0724,0.0289 -0.0688,0.029 -0.0687,0.0289 -0.0724,0.0253 -0.0687,0.029 -0.0688,0.0253 -0.0724,0.0253 -0.0687,0.0253 -0.0688,0.0253 -0.0687,0.0253 -0.0724,0.0217 -0.0687,0.0253 -0.0687,0.0217 -0.0687,0.0253 -0.0688,0.0217 -0.0688,0.0217 -0.0687,0.0217 -0.0687,0.0217 -0.0687,0.0181 -0.0687,0.0217 -0.0688,0.0181 -0.0687,0.0181 -0.0687,0.0217 -0.0688,0.0181 -0.0651,0.0145 -0.0688,0.0181 -0.0687,0.0181 -0.0651,0.0145 -0.0688,0.0181 -0.0687,0.0145 -0.0651,0.0145 -0.0687,0.0145 -0.0651,0.0145 -0.0687,0.0145 -0.0651,0.0109 -0.0688,0.0145 -0.0651,0.0108 -0.0651,0.0145 -0.0651,0.0109 -0.0687,0.0108 -0.0651,0.0109 -0.0651,0.007 -0.0651,0.0109 -0.0651,0.007 -0.0651,0.0109 -0.0651,0.007 -0.0651,0.007 -0.0615,0.007 -0.0651,0.007 -0.0651,0.007 -0.0615,0.004 -0.0651,0.007 -0.0651,0.004 -0.0615,0.004 -0.0615,0.004 -0.0651,0.004 -0.0615,0.004 -0.0615,0.004 -0.0615,0.004 h -0.0651 l -0.0615,0.004 h -0.0615 -0.0615 -0.0579 -0.0615 -0.0615 l -0.0615,-0.004 h -0.0579 l -0.0615,-0.004 h -0.0579 l -0.0615,-0.004 -0.0579,-0.004 -0.0579,-0.004 -0.0579,-0.004 -0.0615,-0.007 -0.0579,-0.004 -0.0543,-0.007 -0.0579,-0.004 -0.0579,-0.007 -0.0579,-0.007 -0.0579,-0.007 -0.0543,-0.007 -0.0579,-0.007 -0.0543,-0.007 -0.0543,-0.0109 -0.0543,-0.007 -0.0579,-0.0109 -0.0543,-0.0108 -0.0543,-0.0109 -0.0543,-0.007 -0.0507,-0.0145 -0.0543,-0.0108 -0.0543,-0.0109 -0.0507,-0.0109 -0.0543,-0.0145 -0.0507,-0.0109 -0.0506,-0.0145 -0.0507,-0.0145 -0.0507,-0.0145 -0.0507,-0.0145 -0.0507,-0.0145 -0.0507,-0.0145 -0.0507,-0.0145 -0.047,-0.0181 -0.0507,-0.0145 -0.047,-0.0181 -0.047,-0.0145 -0.0507,-0.0181 -0.047,-0.0181 -0.047,-0.0181 -0.047,-0.0181 -0.0434,-0.0181 -0.047,-0.0181 -0.047,-0.0181 -0.0434,-0.0217 -0.047,-0.0181 -0.047,-0.0217 -0.0434,-0.0217 -0.047,-0.0217 -0.047,-0.0217 -0.0434,-0.0217 -0.047,-0.0217 -0.047,-0.0253 -0.0434,-0.0253 -0.047,-0.0217 -0.047,-0.0253 -0.0434,-0.0253 -0.047,-0.029 -0.047,-0.0253 -0.0434,-0.0253 -0.047,-0.029 -0.047,-0.0289 -0.0434,-0.029 -0.047,-0.0289 -0.047,-0.029 -0.0434,-0.0289 -0.047,-0.0326 -0.047,-0.0289 -0.0434,-0.0326 -0.047,-0.0326 -0.0434,-0.0326 -0.047,-0.0326 -0.0434,-0.0326 -0.047,-0.0362 -0.0434,-0.0326 -0.047,-0.0362 -0.0434,-0.0362 -0.047,-0.0326 -0.0434,-0.0398 -0.0434,-0.0362 -0.047,-0.0362 -0.0434,-0.0398 -0.0434,-0.0362 -0.0434,-0.0398 -0.047,-0.0398 -0.0434,-0.0398 -0.0434,-0.0398 -0.0434,-0.0398 -0.0434,-0.0434 -0.0434,-0.0398 -0.0434,-0.0434 -0.0434,-0.0434 -0.0434,-0.0434 -0.0434,-0.0434 -0.0434,-0.0434 -0.0398,-0.0434 -0.0434,-0.047 -0.0434,-0.0434 -0.0434,-0.047 -0.0398,-0.047 -0.0434,-0.047 -0.0398,-0.047 -0.0434,-0.047 -0.0398,-0.0507 -0.0434,-0.047 -0.0398,-0.0507 -0.0398,-0.047 -0.0398,-0.0507 -0.0434,-0.0507 -0.0398,-0.0506 -0.0398,-0.0543 -0.0398,-0.0506 -0.0398,-0.0507 -0.0398,-0.0543 -0.0398,-0.0543 -0.0362,-0.0543 -0.0398,-0.0543 -0.0398,-0.0543 -0.0362,-0.0543 -0.0398,-0.0543 -0.0362,-0.0579 -0.0398,-0.0543 -0.0362,-0.0579 -0.0398,-0.0579 -0.0362,-0.0579 -0.0362,-0.0579 -0.0362,-0.0579 -0.0362,-0.0579 -0.0362,-0.0615 -0.0362,-0.0579 -0.0362,-0.0615 -0.0362,-0.0615 -0.0362,-0.0579 -0.0326,-0.0615 -0.0362,-0.0615 -0.0362,-0.0651 -0.0326,-0.0615 -0.0362,-0.0615 -0.0326,-0.0651 -0.0326,-0.0615 -0.0326,-0.0651 -0.0326,-0.0651 -0.0362,-0.0651 -0.0326,-0.0651 -0.0326,-0.0651 -0.029,-0.0687 -0.0326,-0.0651 -0.0326,-0.0651 -0.0326,-0.0687 -0.0289,-0.0687 -0.0326,-0.0687 -0.0289,-0.0687 -0.0289,-0.0688 -0.0326,-0.0687 -0.0289,-0.0687 -0.0289,-0.0687 -0.029,-0.0724 -0.029,-0.0687 -0.0289,-0.0724 -0.029,-0.0724 -0.0289,-0.0687 -0.0253,-0.0724 -0.029,-0.0724 -0.0289,-0.0724 -0.0253,-0.076 -0.0253,-0.0724 -0.0289,-0.0724 -0.0253,-0.076 -0.0253,-0.0724 -0.0253,-0.076 -0.0253,-0.076 -0.0253,-0.076 -0.0253,-0.076 -0.0253,-0.076 -0.0253,-0.076 -0.0217,-0.076 -0.0253,-0.0796 -0.0217,-0.076 -0.0253,-0.0796 -0.0217,-0.076 -0.0217,-0.0796 -0.0253,-0.0796 -0.0217,-0.0796 -0.0217,-0.0796 -0.0217,-0.0796 -0.0217,-0.0796 -0.0217,-0.0796 -0.0181,-0.0796 -0.0217,-0.0832 -0.0217,-0.0796 -0.0181,-0.0832 -0.0217,-0.0832 -0.0181,-0.0796 -0.0181,-0.0832 -0.0217,-0.0832 -0.0181,-0.0832 -0.0181,-0.0832 -0.0181,-0.0832 -0.0181,-0.0868 -0.0181,-0.0832 -0.0145,-0.0832 -0.0181,-0.0868 -0.0181,-0.0832 -0.0145,-0.0868 -0.0181,-0.0868 -0.0145,-0.0868 -0.0181,-0.0832 -0.0145,-0.0868 -0.0145,-0.0905 -0.0181,-0.0868 -0.0145,-0.0868 -0.0145,-0.0868 -0.0145,-0.0905 -0.0145,-0.0868 -0.0109,-0.0868 -0.0145,-0.0905 -0.0145,-0.0905 -0.0109,-0.0868 -0.0145,-0.0905 -0.0109,-0.0905 -0.0145,-0.0905 -0.0109,-0.0905 -0.0145,-0.0905 -0.0109,-0.0941 -0.0109,-0.0905 -0.0109,-0.0905 -0.0109,-0.0941 -0.0109,-0.0905 -0.0109,-0.0941 -0.0109,-0.0905 -0.0109,-0.0941 -0.007,-0.0941 -0.0109,-0.0941 -0.0109,-0.0905 -0.007,-0.0941 -0.0109,-0.0977 -0.007,-0.0941 -0.007,-0.0941 -0.0109,-0.0941 -0.007,-0.0941 -0.007,-0.0977 -0.007,-0.0941 -0.007,-0.0977 -0.0109,-0.0977 -0.004,-0.0941 -0.007,-0.0977 -0.007,-0.0977 -0.007,-0.0977 -0.007,-0.0977 -0.007,-0.0977 -0.004,-0.0977 -0.007,-0.0977 -0.004,-0.0977 -0.007,-0.10131 -0.004,-0.0977 -0.007,-0.0977 -0.004,-0.10131 -0.007,-0.10131 -0.004,-0.0977 -0.004,-0.10131 -0.004,-0.10131 -0.007,-0.10131 -0.004,-0.0977 -0.004,-0.1013 -0.004,-0.10132 -0.004,-0.10492 -0.004,-0.10131 -0.004,-0.10131 v -0.10131 l -0.004,-0.10493 -0.004,-0.10131 -0.004,-0.10493 -0.004,-0.10131 v -0.10493 l -0.004,-0.10493 -0.004,-0.10131 v -0.10492 l -0.004,-0.10493 v -0.10493 l -0.004,-0.10493 v -0.10493 l -0.004,-0.10492 v -0.10855 -0.10493 l -0.004,-0.10493 v -0.10854 -0.10493 l -0.004,-0.10855 v -0.10493 -0.10854 -0.10855 l -0.004,-0.10854 v -0.10855 -0.10855 -0.10854 -0.10855 -0.10855 l -0.004,-0.10854 v -0.10855 -0.11216 -0.10855 -0.11216 -0.10855 -0.11217 -0.10854 -0.11217 -0.11216 -0.11217 -0.11216 -0.11216 -0.11217 -0.11216 z"
         style="fill:#ff8080;fill-opacity:1;stroke:#000000;stroke-width:3.08243"
         id="path3242" />
      <path
         clip-path="url(#p7ec56af071)"
         d="m 357.92923,139.02503 -59.57121,59.57121 10.23384,10.23385 59.57122,-59.57122 z"
         style="fill:#8080ff;fill-opacity:1;stroke:#000000;stroke-width:3.08243"
         id="path3244" />
      <path
         clip-path="url(#p7ec56af071)"
         d="m 368.16308,211.38924 -72.36353,-72.36352 -10.23384,10.23385 72.36352,72.36352 z"
         style="fill:#8080ff;fill-opacity:1;stroke:#000000;stroke-width:3.08243"
         id="path3246" />
      <g
         id="PolyCollection_2"
         style="stroke-width:3.08243">
        <path
           clip-path="url(#p7ec56af071)"
           d="M 121.2347,52.68 H 66.961539 v 54.27316 H 121.2347 Z"
           style="fill:none;stroke-width:3.08243"
           id="path3249" />
        <path
           clip-path="url(#p7ec56af071)"
           d="m 66.961539,106.95316 v 54.27317 H 121.2347 v -54.27317 z"
           style="fill:none;stroke-width:3.08243"
           id="path3251" />
        <path
           clip-path="url(#p7ec56af071)"
           d="M 175.50786,179.31738 V 125.04422 H 121.2347 v 54.27316 z"
           style="fill:none;stroke-width:3.08243"
           id="path3253" />
        <path
           clip-path="url(#p7ec56af071)"
           d="m 175.50786,179.31738 v 54.27316 H 121.2347 v -54.27316 z"
           style="fill:none;stroke-width:3.08243"
           id="path3255" />
        <path
           clip-path="url(#p7ec56af071)"
           d="m 121.2347,88.862109 h 36.18211 V 52.68 H 121.2347 Z"
           style="fill:none;stroke-width:3.08243"
           id="path3257" />
        <path
           clip-path="url(#p7ec56af071)"
           d="M 85.052593,233.59054 H 121.2347 V 197.40843 H 85.052593 Z"
           style="fill:none;stroke-width:3.08243"
           id="path3259" />
        <path
           clip-path="url(#p7ec56af071)"
           d="m 284.50647,188.36291 v -48.84585 h -36.18211 v 48.84585 z"
           style="fill:none;stroke-width:3.08243"
           id="path3261" />
        <path
           clip-path="url(#p7ec56af071)"
           d="M 248.32436,188.36291 V 233.88 h 60.26854 v -45.51709 z"
           style="fill:none;stroke-width:3.08243"
           id="path3263" />
        <path
           clip-path="url(#p7ec56af071)"
           d="m 350.25385,131.34964 -59.57122,59.57122 25.58461,25.58461 59.57122,-59.57121 z"
           style="fill:none;stroke-width:3.08243"
           id="path3265" />
        <path
           clip-path="url(#p7ec56af071)"
           d="m 375.83846,203.71386 -72.36352,-72.36352 -25.58462,25.58461 72.36353,72.36352 z"
           style="fill:none;stroke-width:3.08243"
           id="path3267" />
      </g>
      <path
         style="fill:#aaaaaa;stroke-width:0.196751"
         d="m 43.528156,198.68791 c 1.054609,2.38592 1.893801,3.88821 3.296774,5.90172 4.843208,6.95085 11.712273,11.5172 20.019297,13.3082 1.908825,0.41156 4.082564,0.63081 6.296892,0.63513 0.533588,0.001 1.040235,0.002 1.125889,0.002 l 0.155726,2.7e-4 -0.0088,0.40339 c -0.0118,0.5425 0.02805,6.55994 0.04369,6.59714 0.0067,0.0161 0.182559,-0.10309 0.390615,-0.26497 0.208052,-0.16186 0.507887,-0.39365 0.66631,-0.51504 0.158431,-0.12138 0.473265,-0.37308 0.699652,-0.55928 0.226397,-0.18617 0.612176,-0.49147 0.857309,-0.67837 0.245137,-0.18689 0.503453,-0.38773 0.574046,-0.44628 0.469792,-0.38966 0.745759,-0.60961 1.65962,-1.32287 0.100372,-0.0783 0.37992,-0.30275 0.621245,-0.49872 0.519619,-0.42194 0.926721,-0.74075 1.441897,-1.12918 0.207603,-0.15659 0.394458,-0.30843 0.415199,-0.33753 0.03937,-0.0553 0.907796,-0.73867 1.809287,-1.42387 0.0866,-0.0658 0.23727,-0.18911 0.33485,-0.27408 0.0976,-0.085 0.35347,-0.29155 0.56864,-0.45914 0.21518,-0.16757 0.47323,-0.36904 0.57347,-0.44766 0.27663,-0.21694 1.45801,-1.15941 1.63334,-1.30301 0.085,-0.0696 0.31376,-0.24808 0.50837,-0.39664 0.19462,-0.14851 0.34334,-0.29507 0.3305,-0.32561 -0.0128,-0.0305 -1.35039,-1.07612 -2.97233,-2.32349 -1.621948,-1.24738 -2.984894,-2.29959 -3.028773,-2.33828 -0.04389,-0.0387 -0.189046,-0.14902 -0.322592,-0.24521 -0.133546,-0.0962 -0.317934,-0.23679 -0.409749,-0.31245 -0.0918,-0.0757 -0.275455,-0.21656 -0.408084,-0.31314 -0.132639,-0.0966 -0.339399,-0.25893 -0.459474,-0.36077 -0.120077,-0.10191 -0.326843,-0.26421 -0.459478,-0.3608 -0.132635,-0.0966 -0.31627,-0.23749 -0.408084,-0.31314 -0.0918,-0.0757 -0.275643,-0.21648 -0.408512,-0.31296 -0.132864,-0.0965 -0.315977,-0.23762 -0.406908,-0.31364 -0.09093,-0.076 -0.208477,-0.16683 -0.26121,-0.20177 -0.05275,-0.035 -0.900105,-0.68616 -1.883039,-1.44712 -0.982941,-0.76096 -1.791424,-1.35585 -1.79664,-1.322 -0.0052,0.0339 -0.0041,0.9629 0.0024,2.06453 0.0066,1.10161 -1.71e-4,2.58445 -0.01495,3.29517 -0.01478,0.71073 -0.02836,1.42523 -0.03018,1.58779 l -0.0033,0.29554 -0.628584,0.0343 c -1.749237,0.0953 -3.992924,0.005 -5.779104,-0.23302 -1.298268,-0.17288 -1.742724,-0.27567 -2.970931,-0.68702 -5.684426,-1.90388 -10.551721,-5.75912 -13.949907,-11.04931 -0.889783,-1.38518 -1.335861,-2.22593 -2.110139,-3.97711 l -0.742218,-1.67866 -2.677865,1.12562 -2.677864,1.12563 z"
         id="path3801"
         inkscape:connector-curvature="0" />
      <path
         style="fill:#aaaaaa;stroke-width:0.196751;stroke-linecap:butt;stroke-linejoin:round"
         d="m 170.36281,73.795349 c 2.60816,-0.04829 4.31821,-0.240139 6.71795,-0.753797 8.28414,-1.773224 15.15443,-6.337695 20.02291,-13.302768 1.11872,-1.600467 2.16272,-3.519644 3.02433,-5.559472 0.20762,-0.491547 0.40474,-0.958271 0.43806,-1.037181 l 0.0605,-0.143468 0.3685,0.164315 c 0.49559,0.220988 6.05885,2.514754 6.09921,2.514745 0.0174,1.5e-5 -0.024,-0.208289 -0.093,-0.462747 -0.0687,-0.254511 -0.16628,-0.620704 -0.21676,-0.813794 -0.0505,-0.193069 -0.16072,-0.580805 -0.24466,-0.861643 -0.0839,-0.280847 -0.21604,-0.754749 -0.29339,-1.053134 -0.0774,-0.298387 -0.16246,-0.614338 -0.18918,-0.70208 -0.1773,-0.584037 -0.27323,-0.923656 -0.57689,-2.042435 -0.0333,-0.12286 -0.13199,-0.467521 -0.21916,-0.765913 -0.18776,-0.642479 -0.32405,-1.141285 -0.48265,-1.766691 -0.064,-0.252039 -0.1315,-0.483138 -0.1504,-0.513519 -0.0357,-0.0577 -0.32944,-1.123024 -0.61203,-2.219529 -0.027,-0.105323 -0.0825,-0.292005 -0.12298,-0.414863 -0.0404,-0.12287 -0.1319,-0.438801 -0.20303,-0.70209 -0.0712,-0.263284 -0.15693,-0.579229 -0.19061,-0.7021 -0.0928,-0.339052 -0.50424,-1.793246 -0.56873,-2.01052 -0.0313,-0.105312 -0.10723,-0.385343 -0.16886,-0.622293 -0.0617,-0.236946 -0.13899,-0.43083 -0.1722,-0.430811 -0.033,-1.28e-4 -1.51514,0.828225 -3.29333,1.840493 -1.77818,1.012255 -3.27614,1.861318 -3.32878,1.886789 -0.0526,0.02551 -0.21062,0.11658 -0.35104,0.202452 -0.1404,0.08583 -0.34144,0.201419 -0.44674,0.256761 -0.10531,0.05533 -0.30634,0.170081 -0.44677,0.254962 -0.1404,0.08494 -0.37015,0.212626 -0.51056,0.283886 -0.14043,0.07123 -0.37017,0.199006 -0.51058,0.283888 -0.14041,0.08495 -0.34144,0.199607 -0.44674,0.254962 -0.10531,0.05533 -0.30636,0.17029 -0.44677,0.255421 -0.14041,0.08514 -0.34145,0.199289 -0.44675,0.253683 -0.10531,0.05443 -0.23453,0.127599 -0.28721,0.162676 -0.0525,0.03511 -0.9812,0.564114 -2.06344,1.175623 -1.08226,0.611516 -1.94385,1.126505 -1.91465,1.144426 0.0291,0.0179 0.88615,0.376719 1.90435,0.797325 1.01818,0.420607 2.38268,1.001095 3.03222,1.289976 0.64952,0.288883 1.30302,0.578132 1.45218,0.642769 l 0.2712,0.117517 -0.21188,0.59279 c -0.5896,1.649623 -1.54198,3.683183 -2.45303,5.23784 -0.66221,1.129993 -0.92909,1.499953 -1.78403,2.472988 -3.95685,4.503446 -9.39626,7.49778 -15.58966,8.581917 -1.6217,0.283866 -2.5696,0.369512 -4.48399,0.40517 l -1.8351,0.03412 3.3e-4,2.904821 3.3e-4,2.904821 z"
         id="path3801-3"
         inkscape:connector-curvature="0" />
      <path
         style="fill:#aaaaaa;stroke-width:0.196751;stroke-linecap:butt;stroke-linejoin:round"
         d="m 365.64257,137.30046 c 1.86884,-1.81997 3.20803,-2.90057 5.26106,-4.24505 7.08729,-4.64128 15.16419,-6.31426 23.53947,-4.87582 1.92451,0.33053 4.02304,0.93832 6.07902,1.76065 0.49543,0.19816 0.96584,0.38635 1.04536,0.41816 l 0.14456,0.0579 0.14244,-0.37751 c 0.19149,-0.50771 2.47411,-6.07556 2.50249,-6.10423 0.0123,-0.0124 0.13092,0.16376 0.26353,0.39159 0.1326,0.22782 0.32429,0.55475 0.42597,0.7265 0.10167,0.17174 0.29984,0.52272 0.44039,0.77996 0.14054,0.25724 0.38453,0.68443 0.54221,0.94931 0.15769,0.26489 0.32238,0.5476 0.36603,0.62827 0.29045,0.53681 0.46438,0.84387 1.04605,1.84665 0.0638,0.11016 0.23948,0.42265 0.39024,0.69451 0.32461,0.58538 0.58334,1.0331 0.91633,1.58572 0.13421,0.22271 0.25086,0.43335 0.25924,0.4681 0.0159,0.0659 0.56656,1.02408 1.14721,1.99619 0.0558,0.0933 0.14955,0.26403 0.20837,0.37924 0.0588,0.11526 0.21913,0.4024 0.35621,0.63818 0.13708,0.23578 0.30132,0.51898 0.36499,0.62933 0.17566,0.30452 0.92,1.61976 1.02908,1.81842 0.0528,0.0963 0.19851,0.34725 0.32362,0.5577 0.12511,0.21044 0.20841,0.40188 0.18509,0.42543 -0.0233,0.0236 -1.65441,0.49442 -3.6247,1.04639 -1.97025,0.55198 -3.62741,1.01955 -3.68255,1.03907 -0.0552,0.0195 -0.23101,0.0677 -0.3908,0.1071 -0.15978,0.0394 -0.38334,0.10104 -0.49676,0.13696 -0.11338,0.036 -0.33637,0.0981 -0.49547,0.13822 -0.15912,0.0401 -0.4115,0.11359 -0.56091,0.16326 -0.14939,0.0496 -0.40183,0.12315 -0.56092,0.16324 -0.15913,0.0401 -0.38205,0.1023 -0.49547,0.13823 -0.11338,0.036 -0.33652,0.098 -0.49579,0.13792 -0.15928,0.0399 -0.38183,0.10253 -0.49457,0.13912 -0.11274,0.0366 -0.25567,0.077 -0.31763,0.0897 -0.062,0.0128 -1.09114,0.30068 -2.28705,0.63984 -1.1959,0.33916 -2.16799,0.58937 -2.16018,0.55601 0.008,-0.0334 0.35552,-0.89488 0.7727,-1.91447 0.41722,-1.01958 0.96433,-2.3978 1.21586,-3.0627 0.25154,-0.66489 0.50556,-1.33285 0.56451,-1.48435 l 0.10721,-0.27542 -0.57041,-0.26631 c -1.58729,-0.74121 -3.70265,-1.4946 -5.44855,-1.94051 -1.26898,-0.32415 -1.7197,-0.39462 -3.0127,-0.47132 -5.98427,-0.355 -11.93865,1.40529 -17.06557,5.04512 -1.34243,0.95305 -2.07004,1.5666 -3.4419,2.90231 l -1.31503,1.28043 -2.06433,-2.04365 -2.06433,-2.04365 z"
         id="path3801-3-6"
         inkscape:connector-curvature="0" />
      <path
         style="fill:#aaaaaa;stroke-width:0.196751;stroke-linecap:butt;stroke-linejoin:round"
         d="m 365.63502,223.38299 c 1.87862,1.80988 3.22359,2.88325 5.28384,4.21667 7.11216,4.60306 15.19795,6.23254 23.56537,4.74904 1.92271,-0.34089 4.01793,-0.95996 6.06945,-1.79335 0.49436,-0.20082 0.96375,-0.39154 1.0431,-0.42378 l 0.14424,-0.0587 0.14447,0.37673 c 0.19422,0.50668 2.50678,6.06215 2.53532,6.09068 0.0124,0.0123 0.13003,-0.16447 0.26142,-0.39301 0.13136,-0.22853 0.32129,-0.55648 0.42204,-0.72878 0.10075,-0.17229 0.29703,-0.52433 0.43619,-0.78232 0.13915,-0.25799 0.38084,-0.6865 0.53709,-0.95221 0.15626,-0.26574 0.31944,-0.54933 0.36265,-0.63023 0.28755,-0.53838 0.45982,-0.84637 1.03609,-1.85226 0.0632,-0.1105 0.23721,-0.42393 0.3865,-0.6966 0.32145,-0.58712 0.57776,-1.03622 0.90778,-1.59063 0.13301,-0.22343 0.24852,-0.4347 0.25672,-0.46948 0.0155,-0.066 0.56104,-1.02712 1.13645,-2.00235 0.0553,-0.0936 0.14812,-0.26482 0.20632,-0.38035 0.0581,-0.11557 0.21696,-0.40358 0.35277,-0.64009 0.13581,-0.23652 0.29852,-0.52059 0.3616,-0.63129 0.17402,-0.30545 0.91126,-1.62469 1.01927,-1.82393 0.0523,-0.0966 0.19664,-0.34831 0.32061,-0.55943 0.12399,-0.21111 0.20626,-0.40299 0.18281,-0.42642 -0.0235,-0.0234 -1.65706,-0.48551 -3.63028,-1.02687 -1.9732,-0.54136 -3.63285,-1 -3.6881,-1.01922 -0.0553,-0.0192 -0.23137,-0.0665 -0.39137,-0.105 -0.15999,-0.0386 -0.38387,-0.099 -0.49748,-0.13429 -0.11357,-0.0354 -0.3369,-0.0963 -0.49621,-0.13555 -0.15933,-0.0392 -0.41211,-0.11137 -0.56178,-0.16024 -0.14966,-0.0488 -0.40249,-0.12098 -0.56179,-0.16022 -0.15935,-0.0392 -0.38259,-0.10024 -0.49621,-0.13555 -0.11358,-0.0354 -0.33705,-0.0962 -0.49652,-0.13525 -0.1595,-0.0391 -0.38238,-0.10048 -0.49532,-0.13646 -0.11293,-0.036 -0.25607,-0.0756 -0.31811,-0.088 -0.062,-0.0124 -1.09274,-0.2948 -2.29045,-0.62752 -1.19771,-0.33271 -2.17114,-0.57769 -2.16315,-0.54437 0.008,0.0333 0.36033,0.89295 0.783,1.91028 0.4227,1.01731 0.97722,2.39258 1.23232,3.05611 0.25512,0.66353 0.51273,1.33011 0.57249,1.48129 l 0.1087,0.27484 -0.56897,0.26938 c -1.58328,0.74974 -3.69455,1.51451 -5.43803,1.96981 -1.26722,0.33097 -1.71755,0.40387 -3.01011,0.48752 -5.98227,0.38721 -11.94605,-1.341 -17.09248,-4.95318 -1.34755,-0.94582 -2.07845,-1.55544 -3.45748,-2.88375 l -1.3219,-1.27333 -2.05331,2.05473 -2.05329,2.05473 z"
         id="path3801-3-6-7"
         inkscape:connector-curvature="0" />
    </g>
  </g>
</svg>
